<?xml version="1.0" encoding="UTF-8" standalone="no"?>
<svg
   width="297.51953"
   height="316.00006"
   viewBox="-49 0 425.02791 451.42867"
   version="1.1"
   id="svg3"
   sodipodi:docname="BLUFFS REAL ESTATE LOGO.svg"
   inkscape:version="1.4 (86a8ad7, 2024-10-11)"
   xmlns:inkscape="http://www.inkscape.org/namespaces/inkscape"
   xmlns:sodipodi="http://sodipodi.sourceforge.net/DTD/sodipodi-0.dtd"
   xmlns="http://www.w3.org/2000/svg"
   xmlns:svg="http://www.w3.org/2000/svg">
  <defs
     id="defs3" />
  <sodipodi:namedview
     id="namedview3"
     pagecolor="#ffffff"
     bordercolor="#878787"
     borderopacity="0.24705882"
     inkscape:showpageshadow="2"
     inkscape:pageopacity="0.0"
     inkscape:pagecheckerboard="0"
     inkscape:deskcolor="#d1d1d1"
     inkscape:zoom="2.2825407"
     inkscape:cx="139.9756"
     inkscape:cy="106.67937"
     inkscape:window-width="1920"
     inkscape:window-height="1009"
     inkscape:window-x="-8"
     inkscape:window-y="-8"
     inkscape:window-maximized="1"
     inkscape:current-layer="svg3" />
  <path
     d="m -49,225.71432 v 225.71433 l 212.40736,-0.1133 212.40739,-0.11333 0.10657,-225.601 L 376.0279,0 H 163.51394 -49 v 225.71432 m 0.2106,0.22527 c 0,124.14261 0.0484,174.86098 0.10785,112.70705 0.0594,-62.15346 0.0594,-163.72471 0,-225.71387 -0.0594,-61.988696 -0.10785,-11.13582 -0.10785,113.00682 m 201.47557,-97.32647 c -2.13279,1.1877 -2.57947,1.39807 -2.97095,1.39807 -0.23948,0 -1.24495,0.38327 -2.23512,0.85185 -0.98973,0.46857 -3.42399,1.5037 -5.40901,2.30002 -4.22903,1.69736 -5.4659,2.22644 -6.46924,2.76951 -0.40549,0.21939 -0.93328,0.39861 -1.17232,0.39861 -0.23949,0 -1.24494,0.38236 -2.23511,0.84958 -0.98975,0.46724 -2.46864,1.10059 -3.28599,1.40755 -0.81737,0.30698 -2.29626,0.94033 -3.28601,1.40756 -0.99017,0.46723 -1.99563,0.84958 -2.23509,0.84958 -0.23907,0 -0.81441,0.20315 -1.2785,0.45144 -0.46366,0.24828 -1.22285,0.65456 -1.68651,0.90285 -0.46408,0.24828 -1.03943,0.45142 -1.27849,0.45142 -0.23947,0 -1.24492,0.38236 -2.23509,0.84959 -0.98976,0.46723 -2.46865,1.09697 -3.28602,1.39989 -1.83214,0.67849 -3.37642,1.34164 -4.34623,1.86619 -0.40549,0.2194 -0.93326,0.39862 -1.17232,0.39862 -0.23948,0 -1.24493,0.38912 -2.2351,0.86492 -0.98975,0.47581 -2.56418,1.12723 -3.4983,1.44775 -2.22662,0.76381 -2.97646,1.45856 -3.08558,2.85797 -0.0739,0.94891 0.0947,1.14934 0.96724,1.14934 h 1.05684 v 51.46277 51.46276 h -8.0768 -8.07678 l 0.11549,-8.46428 0.11549,-8.46427 1.69841,-0.14309 c 0.93413,-0.0786 1.88014,-0.33271 2.10178,-0.56429 0.22208,-0.23158 0.7473,-0.42118 1.16766,-0.42118 0.42036,0 0.76429,-0.20315 0.76429,-0.45144 0,-0.24828 0.26749,-0.45141 0.59443,-0.45141 0.83817,0 3.5586,-2.99749 4.47064,-4.92644 1.49588,-3.16361 1.94723,-6.10963 1.33749,-8.72926 -1.57441,-6.76555 -6.14058,-10.72141 -12.37376,-10.72141 -2.57223,0 -3.45966,0.21985 -5.63743,1.39628 -3.79128,2.04857 -5.69094,4.67272 -6.60681,9.1265 -0.57789,2.81014 -0.2174,5.71418 1.09376,8.81459 0.73371,1.73528 3.78108,5.03974 4.64728,5.03974 0.32184,0 0.58552,0.20313 0.58552,0.45141 0,0.24829 0.37068,0.45144 0.82417,0.45144 0.45346,0 0.94217,0.20313 1.08655,0.45141 0.14436,0.2483 0.91969,0.45144 1.72345,0.45144 h 1.46107 v 8.57712 8.57714 h -1.69842 c -1.22668,0 -1.69841,0.18824 -1.69841,0.67714 0,0.59949 9.46312,0.67714 82.62042,0.67714 65.9068,0 82.58518,-0.11421 82.44592,-0.56428 -0.096,-0.31014 -0.58978,-0.62929 -1.09676,-0.70874 -0.90228,-0.14085 -0.92224,-0.30021 -0.92224,-7.31947 0,-6.63237 0.062,-7.21109 0.8212,-7.6431 0.45177,-0.25688 1.22963,-0.46723 1.72813,-0.46723 0.8751,0 4.54663,-2.36819 5.20137,-3.35456 2.00624,-3.02503 2.43977,-4.43123 2.43977,-7.9167 0,-1.96507 -0.19107,-3.6981 -0.42462,-3.85157 -0.23353,-0.1535 -0.42459,-0.56925 -0.42459,-0.92453 0,-1.3615 -3.99849,-5.62118 -5.27696,-5.62118 -0.32822,0 -0.66876,-0.22977 -0.75665,-0.51056 -0.10062,-0.32052 -1.41604,-0.51644 -3.53863,-0.52637 -2.69325,-0.0131 -3.7556,0.19006 -5.23959,1.00172 -2.86904,1.56916 -4.80311,3.94953 -5.88075,7.23774 -0.60547,1.84679 -0.71248,5.72094 -0.16771,6.07847 0.20337,0.13363 0.48404,0.85095 0.62374,1.594 0.25264,1.34345 3.46687,5.16523 5.20689,6.19178 0.49126,0.28937 1.7808,0.66811 2.86608,0.84101 l 1.97313,0.31464 v 7.39756 7.39709 h -8.49206 -8.49205 v -17.6057 -17.60567 h 1.69034 c 2.12684,0 2.20453,-0.28259 2.04192,-7.44855 l -0.12314,-5.41715 h -4.3526 -4.35303 l 0.002,-11.17283 c 4.3e-4,-12.50093 -0.18002,-11.89918 3.08346,-10.27946 0.98975,0.49116 2.27758,0.94845 2.8614,1.01571 0.94432,0.1088 1.07595,-0.0641 1.19314,-1.56509 0.13842,-1.78088 -0.0246,-1.92444 -4.05921,-3.56673 -0.52522,-0.21353 -1.38547,-0.57828 -1.91071,-0.81032 -0.52523,-0.23202 -1.71964,-0.68797 -2.65377,-1.01345 -0.93412,-0.32503 -1.79394,-0.6952 -1.91071,-0.82205 -0.11676,-0.12685 -0.97658,-0.49702 -1.9107,-0.82206 -1.80627,-0.62973 -3.35521,-1.28837 -4.55855,-1.93933 -0.40549,-0.2194 -0.93326,-0.3986 -1.17231,-0.3986 -0.23948,0 -1.24494,-0.38237 -2.23511,-0.8496 -0.98976,-0.46722 -2.46865,-1.10057 -3.286,-1.40754 -0.81736,-0.30698 -2.29624,-0.94034 -3.286,-1.40755 -0.99018,-0.46724 -1.99564,-0.84959 -2.23511,-0.84959 -0.23905,0 -0.76683,-0.17921 -1.17232,-0.39862 -1.20332,-0.65095 -2.75228,-1.30959 -4.55853,-1.93932 -0.93412,-0.32503 -1.79395,-0.6952 -1.91072,-0.82206 -0.11675,-0.12685 -0.97659,-0.49703 -1.91071,-0.82205 -0.93412,-0.32548 -2.17609,-0.80896 -2.75991,-1.07395 -0.58382,-0.26498 -1.49164,-0.65772 -2.01687,-0.87306 -0.52523,-0.21488 -1.48058,-0.62116 -2.12301,-0.90285 -1.59608,-0.69971 -2.60579,-1.10645 -4.35217,-1.75289 -0.81736,-0.30291 -2.25039,-0.90557 -3.18452,-1.3394 -0.93412,-0.4338 -2.4627,-1.06039 -3.39682,-1.39309 -0.93412,-0.33225 -1.88013,-0.76564 -2.10178,-0.96336 -0.22206,-0.19771 -0.6539,-0.35934 -0.96002,-0.35934 -0.30614,0 -1.36638,-0.38325 -2.35655,-0.85184 -0.98975,-0.46857 -3.424,-1.50369 -5.40902,-2.30002 -4.3475,-1.74476 -5.20307,-2.10772 -6.58133,-2.79299 l -1.0615,-0.52771 v -10.75797 c 0,-10.39277 0.0284,-10.75798 0.83434,-10.75798 0.92138,0 1.71327,-1.23782 1.71327,-2.67878 0,-0.72272 -0.26283,-0.92677 -1.16766,-0.90601 -0.642,0.0145 -1.45427,0.18599 -1.80455,0.38101 m -1.03264,1.79938 c -0.12824,0.22075 -0.76047,0.54128 -1.40501,0.7119 -0.64412,0.1711 -1.7447,0.57603 -2.44529,0.90017 -0.70059,0.32411 -1.94255,0.84055 -2.75992,1.14706 -0.81735,0.30697 -2.29624,0.93987 -3.286,1.4071 -0.99017,0.46724 -2.07757,0.8496 -2.4164,0.8496 -0.33926,0 -0.71248,0.16476 -0.82968,0.36656 -0.11719,0.20178 -1.60924,0.855 -3.31571,1.45178 -1.70648,0.59634 -3.1981,1.19449 -3.31488,1.32856 -0.11676,0.13407 -0.97658,0.51372 -1.91071,0.84326 -0.93412,0.33 -2.50856,0.98908 -3.49829,1.46488 -0.99018,0.47581 -2.07759,0.86494 -2.41642,0.86494 -0.33927,0 -0.73456,0.20314 -0.87893,0.45143 -0.14437,0.24828 -0.72862,0.45142 -1.29887,0.45142 -0.57023,0 -1.03644,0.16657 -1.03644,0.36973 0,0.20359 -0.95536,0.64644 -2.12302,0.98456 -1.16764,0.33812 -2.123,0.73673 -2.123,0.8857 0,0.14942 -0.90737,0.553 -2.01686,0.89745 -1.93619,0.60084 -2.4818,0.83015 -4.34623,1.82826 -0.4641,0.2483 -1.03943,0.45144 -1.27849,0.45144 -0.23947,0 -1.24493,0.38913 -2.23511,0.86494 -0.98974,0.4758 -2.56416,1.12766 -3.4983,1.44817 -0.93412,0.32097 -1.93703,0.76924 -2.22915,0.99631 -0.811,0.6302 -0.64243,1.27302 0.2123,0.80986 0.40845,-0.2212 1.2687,-0.62929 1.9107,-0.90646 0.64201,-0.27718 1.59737,-0.69385 2.12302,-0.92589 0.52566,-0.23203 1.71964,-0.68798 2.65376,-1.01345 0.93413,-0.32504 1.79395,-0.6952 1.91071,-0.82206 0.11677,-0.12684 0.9766,-0.49701 1.91072,-0.82205 0.93412,-0.32548 2.12811,-0.78141 2.65376,-1.01344 1.8483,-0.81574 2.88008,-1.23873 4.35217,-1.78359 0.81737,-0.30292 2.29626,-0.93266 3.28601,-1.39989 0.99016,-0.46723 1.99563,-0.84959 2.2351,-0.84959 0.23905,0 0.76683,-0.17921 1.17233,-0.3986 1.01819,-0.55075 2.28267,-1.09065 6.46924,-2.76139 1.98502,-0.79225 4.03882,-1.62423 4.56448,-1.84859 2.45081,-1.04776 2.96202,-1.25588 4.35217,-1.7705 0.81736,-0.30292 2.29626,-0.93266 3.286,-1.39988 0.99018,-0.46723 2.05041,-0.84959 2.35655,-0.84959 0.30613,0 0.73838,-0.17967 0.96001,-0.39906 0.22164,-0.21893 1.64535,-0.85229 3.1633,-1.40665 3.2032,-1.17009 4.0643,-1.80571 2.44529,-1.80571 -0.61695,0 -1.22626,0.18057 -1.35491,0.40131 m -14.25306,13.56722 c -0.81354,0.47581 -2.35994,1.14301 -4.24603,1.83144 -1.4619,0.53358 -2.46269,0.94213 -4.35216,1.77592 -0.52567,0.23203 -1.71964,0.6803 -2.65377,0.99676 -0.93413,0.3169 -1.88948,0.6997 -2.12302,0.85138 -0.23353,0.15213 -1.23685,0.54849 -2.22916,0.88118 l -1.80456,0.60492 v 21.14488 21.14486 h 9.76586 9.76585 v -24.82852 c 0,-23.35551 -0.0442,-24.82716 -0.74304,-24.80188 -0.40847,0.0145 -1.02967,0.19411 -1.37997,0.39906 m 12.50456,9.99415 c -0.46411,0.79813 0.5681,1.58994 3.73097,2.86071 3.49703,1.40483 4.3441,1.7547 5.8438,2.41332 0.58383,0.25641 1.73026,0.71056 2.54762,1.00895 1.79776,0.65637 3.35478,1.32222 4.34623,1.85853 0.40548,0.2194 0.93327,0.39861 1.17233,0.39861 0.23948,0 1.24493,0.38235 2.2351,0.84959 0.98975,0.46722 2.46864,1.10057 3.286,1.40755 0.81736,0.30697 2.29625,0.94032 3.28599,1.40754 0.99019,0.46723 2.07758,0.8496 2.41642,0.8496 0.33926,0 0.73456,0.20313 0.87892,0.45141 0.14436,0.24831 0.59742,0.45143 1.00673,0.45143 0.40933,0 1.53536,0.40629 2.50219,0.90286 0.96682,0.49658 1.96039,0.90286 2.20836,0.90286 0.24796,0 0.78297,0.17923 1.18846,0.39861 1.20333,0.65096 2.75228,1.3096 4.55854,1.93933 0.93413,0.32504 1.79393,0.6952 1.91071,0.82206 0.11676,0.12684 0.97658,0.49702 1.91071,0.82204 0.93412,0.32548 2.12852,0.78142 2.65376,1.01346 1.84829,0.81574 2.88008,1.23871 4.35219,1.78358 0.81735,0.30292 2.29623,0.93265 3.28598,1.39989 0.99018,0.46722 1.99562,0.84958 2.23511,0.84958 0.23905,0 0.76683,0.17923 1.17233,0.39861 1.20332,0.65096 2.75228,1.3096 4.55853,1.93934 0.93413,0.32504 1.79395,0.6952 1.91072,0.82205 0.11675,0.12685 0.97658,0.49702 1.91071,0.82205 0.93412,0.32548 2.12852,0.78142 2.65376,1.01345 0.52522,0.23205 1.38547,0.61124 1.9107,0.84326 0.52524,0.23205 1.71965,0.68032 2.65377,0.99675 0.93413,0.31691 1.93747,0.76113 2.22916,0.98819 0.37407,0.29072 0.53076,0.16206 0.53076,-0.43517 0,-0.85637 -0.76811,-1.33036 -4.03373,-2.49143 -0.93412,-0.3318 -1.79395,-0.70741 -1.9107,-0.83424 -0.11677,-0.12686 -0.9766,-0.49703 -1.91072,-0.82205 -1.68142,-0.58596 -2.29795,-0.83243 -4.56447,-1.82603 -0.64243,-0.28169 -1.59779,-0.68798 -2.12302,-0.90286 -0.52522,-0.21533 -1.43303,-0.60806 -2.01686,-0.87305 -0.58383,-0.265 -1.82578,-0.74847 -2.75992,-1.07395 -0.93412,-0.32504 -1.79394,-0.6952 -1.9107,-0.82205 -0.11676,-0.12686 -0.97659,-0.49704 -1.91072,-0.82205 -1.80625,-0.62975 -3.3552,-1.28838 -4.55853,-1.93934 -0.40548,-0.21939 -0.93326,-0.39861 -1.17233,-0.39861 -0.23947,0 -1.24493,-0.38236 -2.2351,-0.84959 -0.98974,-0.46721 -2.46864,-1.10058 -3.286,-1.40755 -0.81736,-0.30696 -2.29626,-0.94031 -3.28599,-1.40755 -0.99019,-0.46722 -1.99565,-0.84959 -2.23512,-0.84959 -0.23904,0 -0.76682,-0.17922 -1.17233,-0.3986 -1.20331,-0.65096 -2.75226,-1.3096 -4.55852,-1.93935 -0.93412,-0.32502 -1.79395,-0.69519 -1.91071,-0.82204 -0.11676,-0.12684 -0.97659,-0.49702 -1.91072,-0.82205 -1.68143,-0.58596 -2.29795,-0.83243 -4.56447,-1.82603 -0.64243,-0.28169 -1.6929,-0.74214 -2.33532,-1.02384 -2.26652,-0.99358 -2.88304,-1.24007 -4.56446,-1.82601 -0.93414,-0.32505 -1.79395,-0.69521 -1.91073,-0.82206 -0.11675,-0.12685 -0.97658,-0.50063 -1.9107,-0.83017 -0.93414,-0.33 -2.50855,-0.98908 -3.4983,-1.46488 -0.99018,-0.47581 -1.99521,-0.86493 -2.23384,-0.86493 -0.23863,0 -1.24367,-0.3774 -2.23383,-0.83877 -3.68131,-1.71587 -4.09783,-1.84768 -4.36872,-1.38137 m 3.20574,29.19293 v 25.16709 l 33.19754,-0.12097 c 18.25832,-0.0668 33.24807,-0.1747 33.31006,-0.24061 0.0615,-0.0659 0.16984,-5.21535 0.2399,-11.44369 l 0.12737,-11.32363 -1.06149,-0.45412 c -0.58383,-0.24965 -1.73026,-0.70333 -2.54763,-1.00804 -1.85084,-0.69024 -3.38747,-1.35157 -4.34623,-1.87027 -0.40549,-0.21938 -0.93327,-0.39861 -1.17231,-0.39861 -0.23949,0 -1.24494,-0.38236 -2.23512,-0.84958 -0.98974,-0.46723 -2.46863,-1.09697 -3.28599,-1.39989 -1.83217,-0.67849 -3.37643,-1.34163 -4.34623,-1.8662 -0.40551,-0.2194 -0.94049,-0.3986 -1.18847,-0.3986 -0.24795,0 -1.18591,-0.3774 -2.08438,-0.8392 -0.89845,-0.46137 -2.51321,-1.11504 -3.58873,-1.4527 -1.0751,-0.33767 -1.95487,-0.77239 -1.95487,-0.96651 0,-0.19411 -0.46622,-0.35302 -1.03645,-0.35302 -0.57024,0 -1.13115,-0.16296 -1.24705,-0.36204 -0.11549,-0.19908 -1.17786,-0.64194 -2.36038,-0.98456 -1.18208,-0.34219 -2.14976,-0.74441 -2.14976,-0.89339 0,-0.14942 -0.9078,-0.55299 -2.01686,-0.89743 -1.10906,-0.34399 -2.35145,-0.79497 -2.75991,-1.00127 -0.40847,-0.20675 -1.07765,-0.54442 -1.48612,-0.75117 -0.40845,-0.2063 -1.65086,-0.65728 -2.75991,-1.00127 -1.10906,-0.34444 -2.01687,-0.74802 -2.01687,-0.89744 0,-0.14897 -0.95535,-0.54759 -2.123,-0.8857 -1.16766,-0.33811 -2.12301,-0.78097 -2.12301,-0.98456 0,-0.20315 -0.46622,-0.36972 -1.03646,-0.36972 -0.57024,0 -1.13114,-0.16297 -1.24706,-0.36204 -0.1155,-0.19908 -1.17785,-0.64193 -2.36037,-0.98458 -1.1821,-0.34217 -2.14976,-0.7444 -2.14976,-0.89336 0,-0.14943 -0.90736,-0.55301 -2.01686,-0.89746 -1.10948,-0.34397 -2.30346,-0.77103 -2.65377,-0.94844 -0.35029,-0.17786 -1.11458,-0.52455 -1.69841,-0.77103 -0.58382,-0.24649 -1.59608,-0.67624 -2.24912,-0.95523 -0.65303,-0.27944 -1.27422,-0.50786 -1.37995,-0.50786 -0.10573,0 -0.19234,11.32499 -0.19234,25.1671 m 3.07412,0.89339 0.1104,22.01657 h 30.57137 30.57137 l 0.11423,-9.98602 0.11421,-9.98605 -1.28186,-0.50966 c -0.70528,-0.28033 -1.90267,-0.73311 -2.66184,-1.00667 -0.7592,-0.27313 -1.81009,-0.67941 -2.33532,-0.90286 -0.52524,-0.223 -1.38548,-0.58867 -1.91072,-0.81168 -0.52523,-0.22345 -1.62409,-0.65004 -2.44146,-0.94844 -1.68651,-0.61574 -2.71958,-1.02927 -4.24601,-1.69963 -0.58384,-0.25641 -1.73027,-0.71055 -2.54763,-1.00895 -1.46319,-0.53403 -2.46862,-0.94437 -4.35217,-1.7759 -0.52523,-0.23204 -2.19732,-0.855 -3.71527,-1.38408 -2.68178,-0.93491 -3.29364,-1.17326 -5.51983,-2.15105 -0.58382,-0.25641 -1.73026,-0.71055 -2.54762,-1.00894 -0.81735,-0.29841 -1.91624,-0.725 -2.44146,-0.94846 -0.52523,-0.22301 -1.38548,-0.58866 -1.91071,-0.81167 -0.52524,-0.22344 -1.6241,-0.65006 -2.44146,-0.94844 -0.81737,-0.29839 -1.9638,-0.75254 -2.54763,-1.00894 -2.22618,-0.97781 -2.83803,-1.21615 -5.51981,-2.15105 -1.51796,-0.52908 -3.2376,-1.17914 -3.82143,-1.44412 -1.89756,-0.86223 -2.73189,-1.19538 -4.45834,-1.77998 -0.93412,-0.3169 -1.88947,-0.70829 -2.123,-0.8708 -0.23354,-0.16207 -0.95196,-0.42886 -1.5965,-0.59273 l -1.17149,-0.2975 0.10998,22.01705 M 134.8056,163.51571 c -0.32356,0.3345 -1.25725,1.10645 -2.0746,1.71541 -0.81737,0.60898 -1.77273,1.35745 -2.12303,1.66308 -3.08473,2.69186 -8.03814,6.64229 -8.8105,7.02646 -1.10779,0.5512 -1.2615,1.23331 -0.27767,1.23331 0.72138,0 2.67498,-1.34346 4.4133,-3.0345 0.58128,-0.56565 1.18421,-1.02836 1.33962,-1.02836 0.15541,0 1.1129,-0.71235 2.12727,-1.58315 2.54462,-2.184 2.51492,-2.15962 4.16874,-3.40285 2.32088,-1.74433 2.72637,-2.23955 2.24954,-2.7465 -0.28278,-0.30066 -0.62034,-0.24873 -1.01267,0.1571 m 22.55233,11.13176 v 11.34077 h 6.20217 c 5.48119,0 6.17201,-0.0831 5.94443,-0.71417 -0.14181,-0.39273 -0.25772,-4.41136 -0.25772,-8.92969 v -8.21598 l -2.01686,-0.62614 c -1.10951,-0.34398 -2.30349,-0.77104 -2.65379,-0.94844 -1.3341,-0.67624 -2.81934,-1.29199 -4.45831,-1.84679 -0.93413,-0.31691 -1.93704,-0.76111 -2.22916,-0.98818 -0.42079,-0.32728 -0.53076,1.93661 -0.53076,10.92862 m -32.26979,-6.36243 c 0,0.19502 -0.52564,0.68482 -1.16765,1.08885 -1.41776,0.89201 -3.07837,2.39482 -3.07837,2.78575 0,0.1571 0.38215,0.28576 0.8492,0.28576 0.46707,0 0.85048,-0.15214 0.85217,-0.33856 0.002,-0.18645 0.71801,-0.84463 1.59227,-1.46309 1.79606,-1.27077 2.26356,-1.83189 1.96082,-2.35239 -0.26963,-0.46407 -1.00844,-0.46814 -1.00844,-0.006 m 8.27975,0.13002 c -0.23353,0.24151 -0.99528,0.97734 -1.69247,1.63507 -1.62071,1.52808 -0.73499,1.93753 1.15534,0.53405 1.42668,-1.0595 2.00541,-1.72356 2.01687,-2.31448 0.009,-0.4767 -0.97149,-0.3801 -1.47974,0.14536 m 37.31958,1.13308 c 0.14183,0.39274 0.25772,4.25245 0.25772,8.57713 v 7.86298 h 7.64287 7.64284 v -5.36208 c 0,-3.75768 -0.15881,-5.49115 -0.53077,-5.79407 -0.29169,-0.23745 -2.01048,-0.92271 -3.81928,-1.52222 -1.8088,-0.59948 -3.2894,-1.24232 -3.29068,-1.42877 -0.002,-0.18642 -0.46834,-0.33856 -1.03857,-0.33856 -0.57024,0 -1.13114,-0.16297 -1.24706,-0.36204 -0.11549,-0.19909 -1.18973,-0.64555 -2.38712,-0.99224 -1.19737,-0.3467 -2.27162,-0.79316 -2.38711,-0.99224 -0.38893,-0.66856 -1.10354,-0.37017 -0.84284,0.35211 m 16.39263,10.96788 v 5.47223 h 6.8998 6.89978 l -0.0339,-2.5077 c -0.0382,-2.81013 -0.30233,-3.08505 -4.11524,-4.2818 -1.10398,-0.34669 -2.00754,-0.78908 -2.00754,-0.98319 0,-0.19411 -0.43946,-0.35302 -0.97659,-0.35302 -0.53711,0 -1.1583,-0.16794 -1.37995,-0.37288 -0.22164,-0.20495 -1.2632,-0.64826 -2.31409,-0.9841 -1.05088,-0.33633 -2.14934,-0.80264 -2.44146,-1.03695 -0.41738,-0.3345 -0.53075,0.74351 -0.53075,5.04741 m -6.62803,-3.72471 c -0.90867,0.65231 -1.74725,1.32222 -1.86401,1.48879 -0.11677,0.16658 -0.88106,0.79453 -1.69842,1.39492 -0.81736,0.60086 -1.74002,1.35383 -2.04997,1.67436 -0.30997,0.32004 -0.93117,0.79088 -1.37996,1.04639 -0.44882,0.25507 -0.8161,0.7548 -0.8161,1.11007 0,0.76968 2.56928,-0.68933 4.15899,-2.36097 0.53626,-0.56384 1.11161,-1.02519 1.27847,-1.02519 0.16688,0 0.78213,-0.47219 1.36765,-1.04912 0.5851,-0.57693 1.58631,-1.41297 2.22449,-1.85763 1.12861,-0.78594 1.53494,-1.60754 0.79571,-1.60754 -0.20126,0 -1.10863,0.5336 -2.01685,1.18592 m -6.16907,1.95919 c -0.96089,0.85093 -0.96639,0.8884 -0.13206,0.90286 0.87299,0.0149 1.8895,-0.75389 1.8895,-1.42969 0,-0.61393 -0.70994,-0.40131 -1.75744,0.52683 m 5.65911,0.93536 c -0.98126,0.97192 -1.21309,1.7881 -0.50826,1.7881 0.53629,0 2.55102,-1.84723 2.55102,-2.33839 0,-0.67851 -1.10226,-0.38147 -2.04276,0.55029 m 22.40202,1.85265 c -0.0115,0.0884 -0.0671,1.12586 -0.12313,2.30544 l -0.10149,2.1443 h 5.66802 c 3.6707,0 5.57546,-0.15892 5.40562,-0.45144 -0.14436,-0.24829 -0.63605,-0.45142 -1.0925,-0.45142 -0.45645,0 -1.16171,-0.17923 -1.56722,-0.39861 -1.29928,-0.70287 -2.81129,-1.34481 -4.77082,-2.02511 -1.05089,-0.36476 -2.2453,-0.80309 -2.65377,-0.97373 -0.40847,-0.17065 -0.75282,-0.2379 -0.76471,-0.14943 m -44.98641,14.38115 v 9.02854 l 6.05058,-4.4e-4 h 6.05059 v -9.02856 -9.02856 l -6.05059,4.6e-4 h -6.05058 v 9.02856 m 13.57794,-8.91571 c -0.006,0.0618 -0.0527,4.12515 -0.10615,9.02855 l -0.0968,8.9157 h 7.749 7.749 v -9.02854 -9.02856 h -7.64316 c -4.20356,0 -7.64708,0.051 -7.65219,0.11285 m 16.14425,8.92699 v 9.03983 l 6.80552,-0.12414 6.80596,-0.12414 0.0938,-8.91616 0.0943,-8.91569 h -6.89979 l -6.89979,4.6e-4 v 9.03984 m 15.16764,-0.12461 0.0938,8.91616 6.80595,0.12414 6.80552,0.12414 v -9.03983 -9.03984 l -6.89978,-4.6e-4 h -6.89979 l 0.0943,8.91569 m -35.92475,-3.49088 c -0.79061,0.74079 -1.5549,1.35021 -1.69843,1.35428 -0.14308,0.005 -0.9235,0.62795 -1.73364,1.38724 -0.81014,0.75884 -1.97229,1.69331 -2.58243,2.07657 -1.48145,0.93039 -2.37056,2.39752 -1.45301,2.39752 0.36093,0 1.07892,-0.4117 1.59609,-0.91549 0.82373,-0.80219 2.1226,-1.87297 6.82209,-5.62434 1.04792,-0.83649 1.52772,-2.04632 0.80547,-2.03007 -0.17536,0.005 -0.96512,0.61349 -1.75614,1.35429 m 30.75521,0.13092 c -0.68954,0.54486 -1.70137,1.44727 -2.24827,2.00614 -0.5473,0.55887 -1.12944,1.01887 -1.29376,1.02293 -0.16474,0.005 -0.90227,0.56248 -1.63939,1.24142 -0.7371,0.67896 -1.69245,1.46445 -2.12302,1.74568 -0.43054,0.28124 -0.63944,0.67082 -0.46366,0.86583 0.34988,0.38914 1.99819,-0.42794 3.17646,-1.57456 0.4127,-0.40178 1.41902,-1.22248 2.23638,-1.82468 0.81736,-0.60221 1.58165,-1.21569 1.69841,-1.36377 0.11676,-0.14806 0.83305,-0.7304 1.59226,-1.29379 1.41137,-1.04821 1.79776,-1.88606 0.84921,-1.84092 -0.2917,0.0136 -1.09505,0.47083 -1.78462,1.01572 m -36.6419,1.44005 c -1.14686,1.38499 -0.30445,2.1795 0.92519,0.87261 0.36686,-0.39048 0.66707,-0.89834 0.66707,-1.12857 0,-0.6311 -0.98976,-0.47174 -1.59226,0.25596 m 30.78367,0.26363 c -0.72862,0.45142 -1.0509,1.7836 -0.4246,1.75515 0.57533,-0.0258 1.80455,-1.20306 1.80455,-1.72807 0,-0.62703 -0.39869,-0.6347 -1.37995,-0.0271 m -25.3683,1.09064 c -0.54773,0.61982 -0.89251,1.23692 -0.76599,1.371 0.46326,0.49295 2.4627,-0.86089 2.4627,-1.66758 0,-1.13219 -0.51378,-1.04236 -1.69671,0.29658 m 30.67581,0.20224 c -0.95407,0.84598 -1.27506,1.831 -0.59698,1.831 0.46452,0 2.61385,-1.96101 2.61385,-2.38444 0,-0.59273 -1.04919,-0.30517 -2.01687,0.55344 m -76.53499,26.54667 -0.002,21.55567 6.90063,-0.11963 c 3.79511,-0.0659 7.90608,-0.16748 9.13574,-0.2257 l 2.23554,-0.1061 0.0998,-21.32996 0.0998,-21.32997 h -9.23491 -9.2351 l -4.2e-4,21.55569 m 29.9349,-7.56143 v 4.96571 h 39.38188 39.38187 v -4.96571 -4.9657 h -39.38164 -39.38186 v 4.9657 m -18.27575,2.83723 c -1.58122,0.99991 -3.59129,2.74423 -3.59129,3.11621 0,0.77285 1.21733,0.31148 2.59602,-0.98321 0.79103,-0.7426 1.77229,-1.46715 2.18076,-1.6107 0.85047,-0.29794 1.00928,-1.11051 0.21229,-1.08658 -0.29169,0.009 -0.92094,0.26273 -1.39778,0.56428 m 1.91708,2.60474 c -1.27805,1.00714 -2.64187,2.10727 -3.03039,2.44539 -0.38851,0.33767 -2.53785,2.07792 -4.77678,3.86692 -2.2385,1.78901 -4.07025,3.4313 -4.07025,3.64935 0,0.99495 1.21352,0.22074 6.33296,-4.03983 0.7974,-0.6636 2.42151,-1.95107 3.60912,-2.86116 3.16965,-2.42867 4.91902,-4.02356 4.91902,-4.48402 0,-0.73266 -0.62586,-0.43383 -2.98368,1.42335 m 16.35867,18.93513 v 17.60569 l 27.38684,4.4e-4 h 27.38686 l -0.12186,-15.79996 -0.12186,-15.80042 h 7.87086 7.87085 v 15.79996 15.79998 h 2.22917 l 2.22916,4.4e-4 -0.11592,-17.60613 -0.11592,-17.60567 h -37.24908 -37.2491 v 17.60567 m -25.64643,-16.07302 c -0.52524,0.59409 -0.77446,1.19945 -0.55411,1.34435 0.40805,0.26771 2.63509,-1.50821 2.63509,-2.10138 0,-0.69701 -1.17318,-0.27042 -2.08098,0.75703 m 8.55617,1.43962 c -1.19143,0.99809 -1.8674,2.44493 -1.14261,2.44493 0.42674,0 3.58407,-2.85032 3.58407,-3.23539 0,-0.70919 -1.06235,-0.36521 -2.44146,0.79046 m 24.35392,0.45052 c -0.14181,0.39275 -0.25773,3.93103 -0.25773,7.86296 0,3.93194 0.11592,7.47023 0.25773,7.86297 0.37663,1.04415 6.75076,1.04415 7.12737,0 0.33587,-0.9304 0.33587,-14.79554 0,-15.72593 -0.20464,-0.56655 -0.94091,-0.71416 -3.56368,-0.71416 -2.62278,0 -3.35903,0.14761 -3.56369,0.71416 m 11.73219,-0.18961 c -0.55241,0.58732 -0.78635,14.47956 -0.26792,15.91554 0.20678,0.57286 0.96428,0.71416 3.83076,0.71416 h 3.57304 l -0.11549,-8.46427 -0.1155,-8.46428 -3.18962,-0.13 c -2.11665,-0.0862 -3.36667,0.0582 -3.71527,0.42885 m 10.51401,8.05257 v 8.57713 h 3.56368 c 2.85802,0 3.61465,-0.1413 3.82143,-0.71416 0.50613,-1.40213 0.28576,-15.32687 -0.25179,-15.89838 -0.30911,-0.32864 -1.81177,-0.54171 -3.82142,-0.54171 h -3.3119 v 8.57712 m 11.32288,-8.27601 c -0.15584,0.16521 -0.28321,4.02492 -0.28321,8.57712 v 8.27602 h 3.56368 c 2.858,0 3.61464,-0.1413 3.82143,-0.71416 0.50613,-1.40213 0.28575,-15.32687 -0.2518,-15.89838 -0.53754,-0.57152 -6.34738,-0.77556 -6.8501,-0.2406 m -32.37595,1.46713 c -0.0972,0.10337 -0.17662,0.81437 -0.17578,1.57999 0.002,1.31863 0.0904,1.39311 1.69841,1.41387 1.66487,0.0217 1.69714,-0.009 1.69714,-1.57999 0,-1.53711 -0.0615,-1.60211 -1.52135,-1.60211 -0.8369,0 -1.60119,0.0848 -1.69842,0.18824 m 13.30407,-0.0853 c -1.47252,0.16387 -1.59225,0.2853 -1.59096,1.61701 0.002,1.37504 0.0781,1.44097 1.69838,1.46217 1.68568,0.0217 1.69715,0.0104 1.69715,-1.69284 0,-0.94349 -0.0476,-1.68067 -0.10616,-1.63914 -0.0585,0.0421 -0.82244,0.15573 -1.69841,0.2528 m 8.78843,0.0709 c -0.10446,0.11151 -0.19022,0.83965 -0.19022,1.61883 0,1.37143 0.0568,1.41477 1.79266,1.36872 1.69758,-0.0455 1.7965,-0.12234 1.85891,-1.44954 0.0624,-1.31635 -0.0352,-1.41206 -1.60246,-1.57097 -0.91755,-0.093 -1.75444,-0.0781 -1.85889,0.0329 m 10.99083,1.40621 c 0,1.23374 0.1261,1.35427 1.41563,1.35427 0.7783,0 1.55489,0.003 1.72601,0.005 0.17068,0.003 0.33925,-0.60673 0.37492,-1.35429 0.0615,-1.30778 -0.004,-1.35968 -1.72602,-1.35968 -1.70604,0 -1.79054,0.0636 -1.79054,1.35427 m 14.29496,13.99426 v 15.34854 h 3.39681 3.39683 v -15.34862 -15.34853 h -3.39683 -3.39681 v 15.34853 m 7.64284,0 v 15.34854 h 1.27381 1.27381 v -15.34854 -15.34853 h -1.27381 -1.27381 v 15.34853 m 4.03372,0 v 15.34854 h 0.95536 0.95536 v -15.34854 -15.34853 h -0.95536 -0.95536 v 15.34853 m -59.23204,-6.10589 v 4.99775 h 1.69842 1.69841 l -0.002,-4.97563 -0.002,-4.97609 -1.69713,-0.0221 -1.69714,-0.0217 v 4.99775 m 11.88888,0.0221 v 4.97563 h 1.69841 1.6984 v -4.97563 -4.97609 h -1.6984 -1.69841 v 4.97609 m 10.19045,-0.0298 v 5.00542 h 1.69841 c 0.93413,0 1.70478,-0.20765 1.712,-0.46135 0.008,-0.25414 0.0347,-2.46569 0.0607,-4.91514 l 0.0472,-4.45289 -1.75914,-0.0907 -1.75912,-0.0907 v 5.00543 m 11.20653,-4.00642 c 0.14182,0.39274 0.25774,2.50272 0.25774,4.68853 v 3.97483 l 1.37994,0.22344 c 0.7592,0.1228 1.4339,0.17337 1.49971,0.11197 0.0658,-0.0614 0.16134,-2.27204 0.2123,-4.9129 l 0.0925,-4.80094 -1.84999,4.6e-4 c -1.51245,4.5e-4 -1.80286,0.13091 -1.59226,0.71461 M 89.41981,279.83243 c 0,0.46768 0.35709,0.9498 0.7936,1.07079 1.02965,0.28664 1.44279,3.6078 1.26531,10.17743 -0.11847,4.37975 -0.2225,4.92147 -1.11797,5.80761 -0.90273,0.89384 -0.92182,0.99677 -0.22124,1.20262 0.42164,0.12369 2.54677,0.24558 4.72286,0.2704 4.59419,0.0533 6.49556,-0.65457 7.4989,-2.79208 0.73202,-1.56104 0.85855,-4.20505 0.22121,-4.62397 -0.23351,-0.15349 -0.42458,-0.59859 -0.42458,-0.98954 0,-0.39048 -0.40551,-1.08431 -0.90145,-1.54118 l -0.90099,-0.83106 0.91926,-2.07928 c 0.96638,-2.18582 0.90525,-3.13426 -0.29723,-4.59148 -1.33027,-1.61294 -2.49241,-1.93031 -7.07133,-1.93031 -4.11057,0 -4.48635,0.0714 -4.48635,0.85005 m 28.02377,-0.18871 c 0,0.36342 0.38216,0.87849 0.8492,1.14438 0.79273,0.45097 0.84921,0.94529 0.84921,7.41109 v 6.92761 l -1.35449,1.40755 -1.35447,1.40801 h 6.44972 6.4497 v -2.25715 c 0,-1.24143 -0.19107,-2.25714 -0.4246,-2.25714 -0.23353,0 -0.4246,0.3318 -0.4246,0.73719 0,0.98863 -1.61392,2.42417 -2.71874,2.41786 -0.48955,-0.003 -1.60669,-0.13094 -2.48265,-0.28487 l -1.59225,-0.27988 v -7.15964 c 0,-6.67121 0.0581,-7.19848 0.8492,-7.72394 0.46707,-0.31013 0.8492,-0.92137 0.8492,-1.35834 0,-0.68211 -0.41866,-0.79407 -2.97221,-0.79407 -2.32725,0 -2.97222,0.14356 -2.97222,0.66134 m 24.84774,-0.22481 c -0.13971,0.24017 0.13587,0.69566 0.61184,1.01166 0.78084,0.51824 0.86578,1.03377 0.86578,5.24966 0,7.79886 1.55191,11.39629 5.4523,12.63862 2.21346,0.70512 2.58966,0.67578 5.00013,-0.39275 3.42867,-1.51951 4.0541,-3.00335 4.31353,-10.23161 0.17962,-4.99685 0.34944,-6.17688 1.00462,-6.98043 0.43394,-0.53177 0.78891,-1.14797 0.78891,-1.36918 0,-0.22119 -1.38335,-0.34217 -3.07371,-0.2695 -2.53104,0.10925 -3.09918,0.27222 -3.21593,0.92272 -0.0964,0.53675 0.12738,0.79 0.6972,0.79 1.18336,0 1.77102,2.12171 1.77102,6.39448 0,6.52854 -1.75107,9.85693 -5.18567,9.85693 -3.66688,0 -5.0048,-2.68601 -5.0048,-10.04699 0,-4.80634 0.037,-5.00453 1.11544,-5.98954 0.61313,-0.56067 0.98423,-1.24413 0.82416,-1.51996 -0.3588,-0.61665 -5.61071,-0.67308 -5.96482,-0.0641 m 31.84094,-0.0646 c -0.46919,0.49883 -0.16942,1.02383 0.81141,1.42019 0.8526,0.34444 1.07722,0.83197 1.31457,2.85211 0.15753,1.33984 0.22036,4.57883 0.1397,7.19756 -0.13716,4.44161 -0.21826,4.82216 -1.20842,5.67492 -0.58384,0.50288 -0.94603,1.03737 -0.80505,1.1877 0.40167,0.42929 6.61912,0.62026 7.22503,0.2221 0.38682,-0.25417 0.15923,-0.59092 -0.79231,-1.17146 -1.4704,-0.89699 -1.79182,-1.70323 -1.80031,-4.51383 -0.009,-2.79568 0.29892,-3.30986 1.98035,-3.30986 1.53875,0 2.21133,0.47399 3.05672,2.15375 0.79357,1.57639 1.32602,1.18727 1.32602,-0.97011 0,-2.64672 -0.6267,-3.1144 -3.91527,-2.92073 l -2.66606,0.1571 0.13374,-2.48287 c 0.2208,-4.09624 0.19363,-4.06285 3.31147,-4.06285 2.61132,0 2.78795,0.0686 3.47453,1.35158 1.10355,2.06168 1.95784,1.78675 1.61094,-0.51869 -0.15497,-1.03151 -0.38214,-2.04768 -0.50484,-2.25894 -0.23311,-0.40088 -12.3156,-0.40854 -12.69222,-0.008 m 26.32534,0 c -0.46918,0.49883 -0.16941,1.02384 0.81142,1.42019 0.85726,0.34669 1.07679,0.83108 1.32221,2.91803 0.16177,1.3764 0.22037,4.61855 0.13036,7.20478 -0.15158,4.35538 -0.24119,4.76888 -1.21607,5.60899 -0.57873,0.49883 -0.92477,1.04325 -0.76851,1.20939 0.54178,0.57872 6.70276,0.56969 7.15538,-0.01 0.31336,-0.40177 0.0938,-0.69882 -0.81056,-1.09696 -1.35959,-0.5986 -1.73111,-1.53485 -1.7396,-4.38518 -0.009,-2.79569 0.29892,-3.30987 1.98035,-3.30987 1.53876,0 2.21133,0.47399 3.05671,2.15376 0.79357,1.57637 1.32603,1.18726 1.32603,-0.97012 0,-2.64673 -0.62671,-3.11439 -3.91526,-2.92074 l -2.66606,0.1571 0.13288,-2.48285 c 0.21952,-4.094 0.19404,-4.06284 3.31234,-4.06284 2.61129,0 2.78793,0.0687 3.47452,1.35157 1.10354,2.06167 1.95783,1.78674 1.61093,-0.5187 -0.15496,-1.03151 -0.38213,-2.04768 -0.50485,-2.25894 -0.23311,-0.40087 -12.31559,-0.40855 -12.69222,-0.008 m 28.17068,0.59951 c -2.87245,1.75019 -3.38876,5.20451 -1.10652,7.40431 1.64151,1.58182 3.03973,2.45849 3.92164,2.45849 0.35369,0 0.64284,0.20314 0.64284,0.45142 0,0.24828 0.28534,0.45143 0.63351,0.45143 1.24748,0 2.76331,1.89599 2.76331,3.45568 0,1.18995 -0.25009,1.62423 -1.25258,2.17543 -2.29795,1.26355 -6.23699,0.46768 -6.47731,-1.30824 -0.0688,-0.51056 -0.45984,-0.99585 -0.8683,-1.07847 -0.58723,-0.11918 -0.74306,0.16433 -0.74306,1.35249 0,1.20891 0.22801,1.60707 1.16765,2.03639 5.13939,2.34876 10.72122,0.33992 10.72122,-3.85881 0,-2.421 -0.94601,-3.52115 -4.71139,-5.47718 -4.04605,-2.10229 -4.62987,-2.67605 -4.62987,-4.55083 0,-1.92715 0.99485,-2.64582 3.6864,-2.66342 1.96719,-0.0131 2.29624,0.1291 3.10724,1.33983 1.19271,1.78088 1.69841,1.71046 1.69841,-0.237 0,-1.9073 -1.03773,-2.51761 -4.67063,-2.74694 -1.77483,-0.11241 -2.70684,0.0786 -3.88256,0.79542 M 94.93966,280.758 c -0.994,0.27672 -1.06151,0.48123 -1.06151,3.20965 v 2.91397 l 1.85465,0.14129 c 1.45342,0.11106 2.07376,-0.0771 2.86607,-0.86853 1.11203,-1.11097 1.3392,-3.29769 0.46706,-4.50074 -0.62245,-0.85953 -2.66565,-1.30327 -4.12627,-0.89564 m -1.01608,8.86919 c -0.50995,1.41253 -0.25859,5.40361 0.40336,6.40803 1.00547,1.52672 3.84011,1.24819 5.52451,-0.54262 1.25004,-1.32945 0.91884,-4.75623 -0.57618,-5.96425 -1.08019,-0.87216 -5.0273,-0.79949 -5.35169,0.0988 m 35.25559,28.49053 c -0.14903,0.15889 -0.27132,2.59074 -0.27132,5.40494 v 5.11601 h 2.33531 c 1.72262,0 2.33532,-0.16657 2.33532,-0.63425 0,-0.47942 -0.41485,-0.57512 -1.69843,-0.39185 l -1.69839,0.24196 v -4.77248 c 0,-4.36576 -0.27685,-5.73584 -1.00249,-4.96434 m 49.56213,0.21442 c -0.4989,0.25686 -1.15193,0.95431 -1.4517,1.54975 -0.75707,1.5037 0.0289,2.93383 2.14933,3.91027 0.90992,0.41937 1.85765,1.16648 2.10646,1.66036 0.37663,0.74845 0.27046,1.02473 -0.6386,1.65809 -1.03986,0.72453 -1.14899,0.7146 -2.32555,-0.21037 -1.47338,-1.15791 -1.69332,-1.19179 -1.69332,-0.26093 0,1.22653 1.14898,1.99937 2.97222,1.99937 2.12853,0 2.97391,-0.79496 2.96712,-2.78936 -0.004,-1.21253 -0.28746,-1.69331 -1.48016,-2.51492 -0.81142,-0.55841 -1.76421,-1.0157 -2.11791,-1.0157 -0.4314,0 -0.64286,-0.44602 -0.64286,-1.35429 0,-1.18229 0.15116,-1.35428 1.18889,-1.35428 0.65388,0 1.39269,0.21668 1.64193,0.48167 0.32143,0.34173 0.52736,0.27672 0.7074,-0.2221 0.17111,-0.4749 -0.14904,-0.92543 -0.98423,-1.38453 -0.68107,-0.37423 -1.29547,-0.6672 -1.3651,-0.65006 -0.0701,0.0167 -0.53543,0.24062 -1.03392,0.49703 m -104.60717,5.11513 c 0,3.15999 0.16601,5.19141 0.42461,5.19141 0.23352,0 0.4246,-1.01571 0.4246,-2.25714 0,-2.12848 0.0629,-2.25713 1.10141,-2.25713 0.7439,0 1.17319,0.29297 1.32307,0.90285 0.12228,0.49657 0.34435,0.90285 0.4938,0.90285 0.14905,0 0.52482,0.60943 0.8352,1.35429 0.3435,0.82521 0.88148,1.35428 1.37742,1.35428 1.02795,0 1.02159,-0.25144 -0.0356,-1.4581 -0.46706,-0.53315 -0.84921,-1.23557 -0.84921,-1.56149 0,-0.32549 -0.19107,-0.59183 -0.4246,-0.59183 -0.78169,0 -0.43521,-1.28973 0.4246,-1.57999 0.65686,-0.22165 0.84921,-0.68302 0.84921,-2.03639 0,-2.23864 -1.13752,-3.15504 -3.91611,-3.15504 h -2.02832 v 5.19143 m 18.54112,-4.89032 c -0.15585,0.16521 -0.28322,2.50135 -0.28322,5.19142 v 4.89031 h 2.75992 c 1.55701,0 2.75991,-0.19681 2.75991,-0.45142 0,-0.24828 -0.95535,-0.45144 -2.12301,-0.45144 h -2.12301 v -1.80571 -1.8057 h 1.94595 c 1.37232,0 1.8916,-0.16658 1.76168,-0.56428 -0.11083,-0.33857 -0.88955,-0.54849 -1.94596,-0.52547 l -1.76167,0.0393 v -1.73212 -1.73169 h 2.12301 c 1.60414,0 2.12301,-0.16566 2.12301,-0.67714 0,-0.52456 -0.55835,-0.67714 -2.47669,-0.67714 -1.36256,0 -2.60453,0.13542 -2.75992,0.3011 m 19.70027,0.54804 c -0.23524,0.46678 -0.72905,1.83822 -1.09803,3.04714 -0.6802,2.23049 -1.27295,3.82177 -1.95104,5.23881 -0.5299,1.10781 -0.48023,1.24775 0.44456,1.24775 0.52692,0 0.86831,-0.36295 0.95536,-1.01571 0.12228,-0.91278 0.3728,-1.01572 2.47118,-1.01572 2.09839,0 2.34889,0.10294 2.47118,1.01572 0.087,0.65276 0.42843,1.01571 0.95535,1.01571 0.87087,0 1.10313,-0.66315 0.39489,-1.12857 -0.23354,-0.15348 -0.4246,-0.67623 -0.4246,-1.16152 0,-0.48528 -0.22079,-1.33668 -0.49085,-1.89193 -1.03263,-2.12307 -1.20756,-2.59842 -1.20756,-3.27647 0,-0.84778 -1.23008,-2.92435 -1.73238,-2.92435 -0.19829,0 -0.55325,0.38191 -0.78806,0.84914 m 46.90285,-0.41757 c -0.13798,0.23745 -0.22419,2.57358 -0.19191,5.19142 l 0.059,4.75985 h 2.92677 c 1.66826,0 2.92679,-0.19413 2.92679,-0.45142 0,-0.24828 -0.95536,-0.45145 -2.12302,-0.45145 h -2.12302 v -1.8057 -1.8057 h 1.69843 c 1.27592,0 1.69839,-0.18012 1.69839,-0.72454 0,-0.57287 -0.35497,-0.68843 -1.69839,-0.55255 l -1.69843,0.17244 v -1.70504 -1.7046 h 2.12302 c 1.60414,0 2.12302,-0.16566 2.12302,-0.67714 0,-0.53178 -0.58682,-0.67714 -2.73488,-0.67714 -1.50436,0 -2.8478,0.19412 -2.98581,0.43157 m 34.59365,0.22662 c 0,0.47264 0.40932,0.69609 1.27381,0.69609 h 1.27381 v 4.51429 c 0,3.78703 0.10657,4.51427 0.66195,4.51427 0.55963,0 0.64837,-0.67759 0.57661,-4.40142 l -0.0854,-4.40142 1.35067,-0.22572 c 2.55356,-0.42659 1.57528,-1.12675 -1.76082,-1.26038 -2.73529,-0.10969 -3.29068,-0.0145 -3.29068,0.56429 m 20.09984,-0.11331 c -0.22845,0.32096 -0.67512,1.49783 -0.99272,2.61512 -0.3176,1.11729 -0.69975,2.23457 -0.8492,2.48286 -0.56092,0.9322 -1.40035,4.30435 -1.14049,4.58062 0.37704,0.40088 1.56507,-0.71956 1.56507,-1.4757 0,-0.44287 0.59275,-0.62208 2.05465,-0.62208 1.77995,0 2.11963,0.15123 2.53871,1.12857 0.26622,0.62071 0.76852,1.12857 1.11628,1.12857 0.62926,0 0.59785,-0.42298 -0.18556,-2.48285 -0.18851,-0.49657 -0.57278,-1.61386 -0.85344,-2.48286 -0.28067,-0.86899 -0.67215,-1.98628 -0.87002,-2.48284 -0.19828,-0.49658 -0.41992,-1.30689 -0.49295,-1.80076 -0.15711,-1.06175 -1.30014,-1.41793 -1.89033,-0.58865 m 15.14216,0.11331 c 0,0.49476 0.43013,0.69609 1.48612,0.69609 h 1.48611 v 4.51429 c 0,2.70856 0.16984,4.51427 0.4246,4.51427 0.25476,0 0.4246,-1.79622 0.4246,-4.48583 v -4.4854 l 1.37995,-0.14175 c 2.63168,-0.26949 1.37274,-1.04459 -1.91071,-1.17596 -2.73529,-0.10969 -3.29067,-0.0145 -3.29067,0.56429 m 18.2579,4.51157 v 5.21309 h 2.75992 c 3.29152,0 3.71782,-0.79722 0.53075,-0.99223 l -2.22915,-0.13634 -0.13163,-1.69285 -0.13205,-1.69285 h 2.18416 c 2.82615,0 2.70048,-1.06852 -0.14904,-1.26626 -1.94681,-0.13497 -1.98375,-0.16613 -1.98375,-1.66938 0,-1.52944 0.003,-1.53169 2.22917,-1.66802 3.09492,-0.18915 2.7977,-1.01029 -0.4246,-1.17371 l -2.65378,-0.13408 v 5.21264 M 74.98332,321.21586 c 0,1.60481 0.002,1.60616 1.76126,1.46713 3.33015,-0.26228 3.22484,-3.07287 -0.11464,-3.07287 -1.60373,0 -1.64662,0.0415 -1.64662,1.60574 m 37.73486,0.53854 c -0.25349,0.68302 -0.63181,1.59398 -0.84031,2.02511 -0.57491,1.18951 -0.51078,1.24775 1.3651,1.24775 1.49333,0 1.70011,-0.11332 1.44026,-0.79001 -0.16729,-0.43427 -0.4832,-1.44999 -0.70229,-2.25714 -0.48617,-1.78855 -0.67003,-1.8215 -1.26276,-0.22571 m 101.21333,0.55706 c -0.74857,2.55148 -0.69423,2.7158 0.89931,2.7158 1.29588,0 1.4084,-0.10474 1.22327,-1.13534 -0.11208,-0.62433 -0.37237,-1.24549 -0.57788,-1.38092 -0.20594,-0.13498 -0.37406,-0.63967 -0.37406,-1.12181 0,-1.46442 -0.61144,-0.98275 -1.17064,0.92227"
     stroke="none"
     fill="#ffffff"
     fill-rule="evenodd"
     id="path1"
     style="stroke-width:0.687786" />
  <path
     d="m 138.87703,5.284479 c -0.825,0.474 -4.2,1.833 -7.5,3.021 -3.3,1.187 -6.781,2.573 -7.736,3.079 -0.955,0.506 -2.18,0.92 -2.721,0.92 -0.541,0 -3.443,1.125 -6.449,2.5 -3.006,1.375 -5.764,2.5 -6.129,2.5 -0.364,0 -2.081,0.624 -3.814,1.386 -1.733,0.763 -5.851,2.374 -9.151,3.58 -3.3,1.207 -6.781,2.608 -7.736,3.114 -0.955,0.506 -2.18,0.92 -2.721,0.92 -0.541,0 -3.443,1.125 -6.449,2.5 -3.006,1.375 -5.764,2.5 -6.129,2.5 -0.364,0 -2.081,0.622 -3.814,1.383 -1.733,0.76 -4.726,1.931 -6.651,2.601 -4.31,1.5 -7.949,2.969 -10.236,4.133 -0.955,0.486 -2.198,0.883 -2.761,0.883 -0.564,0 -2.932,0.858 -5.264,1.907 -2.331,1.049 -9.189,3.764 -15.239,6.033 -11.461,4.298 -16.174,6.541 -15.75,7.497 0.137,0.31 0.25,1.463 0.25,2.563 0,1.333 0.667,2 2,2 1.988,0 2,0.667 2,114.500001 v 114.5 h -19 -19 v -19.5 -19.5 h 3.179 c 3.694,0 9.735,-1.946 11.642,-3.75 0.727,-0.687 1.717,-1.25 2.2,-1.25 1.476,0 6.765,-6.193 8.935,-10.463 4.162,-8.19 4.321,-18.173 0.42,-26.426 -1.982,-4.194 -8.889,-11.148 -12.888,-12.978 -1.643,-0.751 -3.769,-1.764 -4.724,-2.25 -2.386,-1.213 -16.501,-1.118 -17.264,0.117 -0.34,0.55 -1.379,1.011 -2.309,1.025 -2.62,0.038 -10.879,6.546 -13.68,10.779 -4.12,6.226 -5.894,14.625 -4.477,21.196 0.653,3.025 1.925,6.998 2.826,8.829 2.029,4.119 8.794,11.171 10.717,11.171 0.783,0 1.423,0.45 1.423,1 0,0.55 0.873,1 1.941,1 1.068,0 2.219,0.45 2.559,1 0.34,0.55 2.166,1 4.059,1 h 3.441 v 19.577 19.576 l -3.446,-0.297 c -1.896,-0.163 -3.771,0.028 -4.167,0.424 -0.396,0.396 86.992,0.653 194.196,0.57 107.204,-0.082 193.68,-0.337 192.167,-0.566 l -2.75,-0.417 v -16.888 -16.888 l 3.75,-0.657 c 7.731,-1.355 15.674,-7.917 19.044,-15.731 1.561,-3.619 1.55,-14.06 -0.02,-18.632 -1.435,-4.182 -10.51,-14.015 -12.965,-14.048 -0.93,-0.013 -1.969,-0.473 -2.309,-1.023 -0.34,-0.55 -4.178,-1 -8.529,-1 -8.741,0 -12.703,1.548 -18.787,7.342 -4.409,4.2 -8.184,12.575 -8.184,18.158 0,3.177 0.585,5.192 3.341,11.5 1.296,2.967 9.62,10.99 11.409,10.996 0.688,0.002 1.25,0.396 1.25,0.875 0,0.479 2.25,1.17 5,1.535 l 5,0.663 v 16.986 16.986 l -20.25,-0.27 -20.25,-0.271 v -39.5 -39.5 l 4.25,-0.307 4.25,-0.308 v -13.442 -13.443 h -10 -10 v -25 c 0,-21.196 0.221,-25 1.453,-25 1.401,0 3.479,0.742 10.198,3.641 4.339,1.871 4.349,1.865 4.349,-2.696 0,-3.956 -0.135,-4.115 -5.529,-6.5 -3.04,-1.345 -6.19,-2.445 -7,-2.445 -0.809,0 -1.471,-0.352 -1.471,-0.782 0,-0.43 -2.138,-1.405 -4.75,-2.168 -2.612,-0.762 -5.425,-1.708 -6.25,-2.101 -3.043,-1.451 -6.603,-2.85 -10.5,-4.128 -2.2,-0.72 -4.225,-1.54 -4.5,-1.821 -0.275,-0.281 -2.3,-1.109 -4.5,-1.839 -2.2,-0.731 -5.908,-2.191 -8.239,-3.245 -2.332,-1.054 -4.7,-1.916 -5.264,-1.916 -0.563,0 -1.806,-0.397 -2.761,-0.883 -2.284,-1.162 -5.921,-2.631 -10.236,-4.134 -1.925,-0.671 -5.408,-2.066001 -7.739,-3.101001 -2.332,-1.035 -4.61,-1.882 -5.062,-1.882 -0.453,0 -2.686,-0.9 -4.963,-2 -2.277,-1.1 -4.81,-2 -5.629,-2 -0.819,0 -1.767,-0.45 -2.107,-1 -0.34,-0.55 -1.407,-1 -2.371,-1 -0.964,0 -3.616,-0.9 -5.893,-2 -2.277,-1.1 -4.836,-2 -5.688,-2 -0.851,0 -1.548,-0.352 -1.548,-0.782 0,-0.43 -2.138,-1.395 -4.75,-2.145 -2.612,-0.75 -5.2,-1.654 -5.75,-2.01 -0.55,-0.355 -2.8,-1.25 -5,-1.989 -2.2,-0.739 -5.8,-2.129 -8,-3.09 -2.2,-0.961 -5.575,-2.303 -7.5,-2.983 -1.925,-0.679 -4.85,-1.82 -6.5,-2.534 -1.65,-0.713 -5.475,-2.196 -8.5,-3.294 -11.904,-4.32 -15.55,-5.734 -16.75,-6.497 -0.943,-0.599 -1.25,-6.625 -1.25,-24.498 0,-23.623 0.008,-23.707 2.25,-24.691 2.974,-1.305 3.863,-7.519 1.063,-7.428 -0.997,0.032 -2.488,0.447 -3.313,0.921 m -6,4.678 c -3.575,1.408 -8.408,3.411 -10.739,4.451 -2.332,1.04 -4.7,1.891 -5.264,1.891 -0.563,0 -1.918,0.45 -3.011,1 -1.092,0.55 -2.88,1.45 -3.972,2 -1.093,0.55 -2.465,1 -3.049,1 -0.584,0 -2.793,0.836 -4.909,1.859 -2.116,1.022 -5.919,2.47 -8.452,3.218 -2.532,0.748 -4.604,1.711 -4.604,2.141 0,0.43 -0.906,0.782 -2.014,0.782 -1.107,0 -2.795,0.397 -3.75,0.883 -3.127,1.591 -9.116,4.002 -15.236,6.134 -1.925,0.671 -5.408,2.066 -7.739,3.101 -2.332,1.035 -4.919,1.882 -5.75,1.882 -0.831,0 -1.511,0.45 -1.511,1 0,0.55 -1.098,1 -2.441,1 -1.343,0 -2.664,0.361 -2.937,0.802 -0.272,0.441 -2.774,1.422 -5.559,2.181 -2.784,0.758 -5.063,1.649 -5.063,1.979 0,0.331 -2.137,1.215 -4.75,1.965 -2.613,0.75 -5.2,1.667 -5.75,2.038 -0.55,0.371 -2.919,1.28 -5.264,2.02 -4.407,1.39 -7.041,3.543 -5.824,4.76 0.383,0.383 1.01,0.258 1.392,-0.279 0.383,-0.537 2.496,-1.567 4.696,-2.287 2.2,-0.721 5.125,-1.792 6.5,-2.379 1.375,-0.587 3.512,-1.457 4.75,-1.934 1.238,-0.476 3.488,-1.376 5,-2 3.759,-1.55 6.137,-2.451 10.25,-3.883 1.925,-0.671 5.408,-2.066 7.739,-3.101 2.332,-1.035 4.7,-1.882 5.264,-1.882 0.563,0 1.806,-0.397 2.761,-0.883 0.955,-0.486 3.086,-1.439 4.736,-2.117 1.65,-0.678 3.781,-1.631 4.736,-2.117 0.955,-0.486 2.616,-0.883 3.691,-0.883 1.075,0 2.202,-0.4 2.505,-0.889 0.302,-0.489 1.791,-1.199 3.309,-1.577 1.517,-0.379 4.334,-1.374 6.259,-2.213 4.757,-2.072 6.193,-2.64 16,-6.321 4.675,-1.755 9.4,-3.554 10.5,-3.998 1.1,-0.444 4.475,-1.708 7.5,-2.81 3.025,-1.101 6.4,-2.344 7.5,-2.761 1.1,-0.417 3.994,-1.491 6.431,-2.387 2.436,-0.895 4.611,-2.171 4.833,-2.836 0.588,-1.764 -1.467,-1.425 -8.764,1.45 m -30.5,29.342 c -0.34,0.55 -1.407,1 -2.371,1 -0.964,0 -3.525,0.835 -5.691,1.856 -2.166,1.021 -6.075,2.47 -8.688,3.219 -2.613,0.749 -4.75,1.713 -4.75,2.143 0,0.43 -1.035,0.782 -2.3,0.782 -1.265,0 -2.727,0.358 -3.25,0.796 -0.522,0.438 -2.75,1.379 -4.95,2.093 -2.2,0.713 -5.238,1.815 -6.75,2.448 l -2.75,1.151 v 46.756001 46.756 h 23 23 V 93.304479 c 0,-53.776 -0.043,-55 -1.941,-55 -1.068,0 -2.219,0.45 -2.559,1 m 28.5,22.831 c 0,1.708 1.732,2.911 7.25,5.035 1.238,0.477 3.375,1.347 4.75,1.934 1.375,0.587 4.3,1.639 6.5,2.338 2.2,0.699 4.428,1.628 4.95,2.066 0.523,0.438 1.54,0.796 2.261,0.796 0.721,0 3.218,0.847 5.55,1.882 2.331,1.035 5.814,2.437 7.739,3.117 1.925,0.679 4.85,1.815 6.5,2.523 8.212,3.524 10.9,4.478 12.622,4.478 1.033,0 1.878,0.352 1.878,0.782 0,0.43 2.138,1.405 4.75,2.168 2.612,0.762 5.65,1.831 6.75,2.374 4.852,2.397 5.529,2.676 6.497,2.676 0.564,0 2.932,0.847 5.264,1.882 2.331,1.035 5.814,2.43 7.739,3.101 4.351,1.515001 6.795,2.448001 10,3.817001 1.375,0.587 4.3,1.658 6.5,2.379 2.2,0.72 4.225,1.54 4.5,1.821 0.275,0.281 2.3,1.101 4.5,1.821 4.254,1.395 7.902,2.854 10.736,4.296 0.955,0.486 2.198,0.883 2.761,0.883 0.564,0 2.932,0.847 5.264,1.882 2.331,1.035 5.814,2.43 7.739,3.101 1.925,0.67 4.625,1.684 6,2.252 3.483,1.439 5.938,2.367 10,3.782 1.925,0.671 5.408,2.066 7.739,3.101 2.332,1.035 4.7,1.882 5.264,1.882 0.563,0 1.918,0.45 3.011,1 1.092,0.55 2.88,1.45 3.972,2 2.718,1.368 3.014,1.282 3.014,-0.879 0,-1.202 -1.17,-2.318 -3.25,-3.101 -4.22,-1.587 -7.874,-3.074 -9.75,-3.969 -0.825,-0.393 -3.638,-1.339 -6.25,-2.101 -2.612,-0.763 -4.75,-1.657 -4.75,-1.988 0,-0.33 -2.25,-1.213 -5,-1.962 -2.75,-0.749 -5,-1.73 -5,-2.181 0,-0.45 -0.906,-0.819 -2.014,-0.819 -1.107,0 -2.795,-0.397 -3.75,-0.883 -0.955,-0.486 -2.861,-1.326 -4.236,-1.867 -1.375,-0.54 -3.625,-1.463 -5,-2.05 -1.375,-0.587 -4.3,-1.658 -6.5,-2.379 -2.2,-0.72 -4.225,-1.54 -4.5,-1.821 -0.275,-0.281 -2.3,-1.101 -4.5,-1.821 -3.897,-1.278 -7.457,-2.677 -10.5,-4.128 -0.825,-0.393 -3.638,-1.339 -6.25,-2.101001 -2.612,-0.763 -4.75,-1.738 -4.75,-2.168 0,-0.43 -0.68,-0.782 -1.511,-0.782 -0.831,0 -3.418,-0.847 -5.75,-1.882 -2.331,-1.035 -5.814,-2.43 -7.739,-3.101 -4.315,-1.503 -7.952,-2.972 -10.236,-4.134 -0.955,-0.486 -2.198,-0.883 -2.761,-0.883 -0.564,0 -2.932,-0.848 -5.264,-1.885 -2.331,-1.037 -6.939,-2.888 -10.239,-4.114 -3.3,-1.226 -7.35,-2.818 -9,-3.538 -1.65,-0.72 -4.242,-1.618 -5.759,-1.997 -1.518,-0.378 -3.007,-1.088 -3.309,-1.577 -0.303,-0.489 -1.203,-0.889 -2.002,-0.889 -0.798,0 -3.359,-0.849 -5.691,-1.887 -2.331,-1.038 -8.064,-3.323 -12.739,-5.078 -4.675,-1.755 -9.281,-3.605 -10.236,-4.113 -2.624,-1.393 -3.764,-1.118 -3.764,0.909 m 8,64.175001 v 56.006 l 78.75,-0.256 78.75,-0.256 0.256,-25.5 0.256,-25.5 -2.705,-1.25 c -1.488,-0.687 -3.071,-1.25 -3.517,-1.25 -0.447,0 -2.719,-0.847 -5.051,-1.882 -2.331,-1.035 -5.814,-2.43 -7.739,-3.101 -4.351,-1.515 -6.795,-2.448 -10,-3.817 -1.375,-0.587 -4.3,-1.658 -6.5,-2.379 -2.2,-0.72 -4.225,-1.54 -4.5,-1.821 -0.275,-0.281 -2.3,-1.101 -4.5,-1.821 -4.103,-1.345 -6.136,-2.115 -10.5,-3.979 -1.375,-0.587 -4.3,-1.658 -6.5,-2.379 -2.2,-0.72 -4.225,-1.54 -4.5,-1.821 -0.275,-0.281 -2.3,-1.101 -4.5,-1.821 -2.2,-0.721 -5.125,-1.792 -6.5,-2.379 -4.364,-1.864001 -6.397,-2.634001 -10.5,-3.979001 -2.2,-0.72 -4.225,-1.54 -4.5,-1.821 -0.275,-0.281 -2.3,-1.101 -4.5,-1.821 -4.254,-1.395 -7.902,-2.854 -10.736,-4.296 -0.955,-0.486 -2.198,-0.883 -2.761,-0.883 -0.564,0 -2.932,-0.847 -5.264,-1.882 -2.331,-1.035 -5.814,-2.43 -7.739,-3.101 -1.925,-0.67 -4.625,-1.684 -6,-2.252 -3.49,-1.442 -5.945,-2.37 -10,-3.781 -1.925,-0.67 -4.85,-1.798 -6.5,-2.506 -7.192,-3.086 -10.804,-4.478 -11.622,-4.478 -0.494,0 -0.878,24.529 -0.878,56.006001 m 8,1.994 v 48 h 71.5 71.5 v -21.831 c 0,-24.54 0.756,-22.162 -8,-25.169 -4.243,-1.457 -6.704,-2.392 -10,-3.801 -1.375,-0.587 -5.425,-2.027 -9,-3.199 -3.575,-1.172 -7.513,-2.552 -8.75,-3.066 -4.436,-1.842 -6.804,-2.751 -10.25,-3.934 -3.972,-1.364 -6.405,-2.28 -10,-3.765 -1.375,-0.568 -4.075,-1.574 -6,-2.235 -1.925,-0.661 -4.625,-1.667 -6,-2.235 -1.375,-0.568 -3.4,-1.399 -4.5,-1.847 -1.1,-0.449 -5.15,-1.85 -9,-3.115 -3.85,-1.264 -7.15,-2.637001 -7.333,-3.051001 -0.184,-0.414 -1.331,-0.752 -2.55,-0.752 -1.22,0 -2.645,-0.358 -3.167,-0.796 -0.522,-0.438 -2.75,-1.367 -4.95,-2.066 -2.2,-0.699 -5.013,-1.69 -6.25,-2.204 -1.237,-0.514 -3.263,-1.354 -4.5,-1.868 -1.237,-0.514 -4.05,-1.505 -6.25,-2.204 -2.2,-0.699 -4.428,-1.628 -4.95,-2.066 -0.523,-0.438 -1.948,-0.796 -3.167,-0.796 -1.219,0 -2.366,-0.338 -2.55,-0.752 -0.354,-0.8 -12.826,-5.248 -14.714,-5.248 -0.81,0 -1.119,13.271 -1.119,48.000001 m -51.525,-44.959001 c -0.354,0.572 -2.293,2.158 -4.309,3.524 -4.027,2.729 -7.893,5.621 -16.618,12.435 -3.17,2.475001 -7.142,5.374001 -8.828,6.443001 -1.685,1.068 -2.57,2.107 -1.966,2.308 1.102,0.368 7.692,-3.403 10.336,-5.913 1.892,-1.795 16.472,-12.712001 21.153,-15.838001 2.059,-1.375 3.746,-2.837 3.75,-3.25 0.01,-1.131 -2.782,-0.9 -3.518,0.291 m 53.525,24.014001 v 24.945 h 14.521 14.521 l -0.271,-19.602 -0.271,-19.601001 -4.5,-1.495 c -2.475,-0.822 -4.928,-1.901 -5.45,-2.398 -0.522,-0.497 -1.766,-0.904 -2.764,-0.904 -0.997,0 -2.595,-0.409 -3.55,-0.91 -0.955,-0.5 -4.099,-1.826 -6.986,-2.945 l -5.25,-2.034 v 24.944001 m -77.224,-12.773001 c -1.497,1.22 -4.152,3.321 -5.899,4.668 -1.747,1.348001 -2.71,2.606001 -2.139,2.796001 1.424,0.475 11.26,-6.946001 11.261,-8.496001 0.001,-1.597 0.007,-1.599 -3.223,1.032 m 18.747,1.196 c -2.187,1.871 -3.761,3.617 -3.499,3.88 0.68,0.679001 8.232,-4.606 8.729,-6.108 0.692,-2.09 -1.051,-1.348 -5.23,2.228 m 89.477,17.522001 v 19 h 18.5 18.5 v -11.878 c 0,-13.011 0.052,-12.892 -6.5,-14.98 -2.2,-0.701 -5.125,-1.755 -6.5,-2.342 -3.299,-1.409 -5.76,-2.344 -10,-3.800001 -4.234,-1.454 -7.901,-2.929 -10.236,-4.117 -0.955,-0.486 -2.193,-0.883 -2.75,-0.883 -0.65,0 -1.014,6.830001 -1.014,19.000001 m 39,7 v 12 h 16.5 16.5 v -5.84 -5.84 l -4.25,-1.334 c -2.337,-0.733 -4.678,-1.706 -5.2,-2.16 -0.523,-0.454 -1.985,-0.826 -3.25,-0.826 -1.265,0 -2.3,-0.342 -2.3,-0.759 0,-0.417 -3.6,-1.876 -8,-3.241 -4.4,-1.365 -8,-2.824 -8,-3.241 0,-0.417 -0.45,-0.759 -1,-0.759 -0.611,0 -1,4.667 -1,12 m -16.024,-7.75 c -2.379,1.788 -5.934,4.486 -7.9,5.997 -1.967,1.512 -5.038,3.694 -6.826,4.849 -3.101,2.005 -4.253,3.904 -2.369,3.904 0.485,0 4.583,-2.812 9.107,-6.25 4.524,-3.437 9.528,-7.079 11.119,-8.092 2.774,-1.766 3.83,-3.658 2.043,-3.658 -0.467,0 -2.796,1.462 -5.174,3.25 m -13.403,3.271 c -2.27,1.718 -1.233,3.385 1.165,1.872 1.824,-1.15 2.897,-3.411 1.595,-3.361 -0.458,0.017 -1.7,0.688 -2.76,1.489 m 12.733,2.894 c -1.543,1.328 -2.491,2.731 -2.106,3.117 0.729,0.73 6.648,-3.466 6.745,-4.782 0.106,-1.437 -1.852,-0.734 -4.639,1.665 m 51.694,8.585 v 5 h 13.5 c 8.333,0 13.5,-0.383 13.5,-1 0,-0.55 -1.131,-1 -2.514,-1 -1.382,0 -3.295,-0.397 -4.25,-0.883 -2.93,-1.491 -6.551,-2.926 -10.736,-4.255 -2.2,-0.699 -4.428,-1.628 -4.95,-2.066 -0.522,-0.438 -1.76,-0.796 -2.75,-0.796 -1.493,0 -1.8,0.852 -1.8,5 m -105,27 v 20 h 14.5 14.5 v -20 -20 h -14.5 -14.5 v 20 m 31,0 v 20 h 18.5 18.5 v -20 -20 h -18.5 -18.5 v 20 m 39,0 v 20 h 16.5 16.5 v -20 -20 h -16.5 -16.5 v 20 m 35,0 v 20 h 16.5 16.5 v -20 -20 h -16.5 -16.5 v 20 m -84.688,-7.221 c -1.753,1.497 -5.044,4.071 -7.312,5.721 -7.014,5.102 -10.527,8.307 -9.849,8.985 0.358,0.357 3.412,-1.518 6.788,-4.168 3.376,-2.649 7.584,-5.853 9.35,-7.119 1.766,-1.265 4.098,-3.178 5.183,-4.25 3.139,-3.1 -0.376,-2.398 -4.16,0.831 m 72.688,0.74 c -2.475,1.909 -6.075,4.556 -8,5.882 -5.303,3.654 -10.639,8.513 -9.398,8.558 0.606,0.023 2.631,-1.071 4.5,-2.43 1.869,-1.359 4.98,-3.548 6.913,-4.864 1.933,-1.316 4.164,-3.176 4.959,-4.133 0.794,-0.957 2.475,-2.132 3.735,-2.611 1.26,-0.48 2.291,-1.558 2.291,-2.396 0,-1.955 0.249,-2.054 -5,1.994 m -85.345,2.31 c -2.883,3.185 -1.268,4.641 1.774,1.6 1.708,-1.709 2.072,-3.429 0.726,-3.429 -0.465,0 -1.59,0.823 -2.5,1.829 m 12.884,2.663 c -1.628,1.331 -2.721,2.66 -2.427,2.953 1.05,1.051 5.873,-1.98 5.88,-3.695 0.01,-2.161 0.131,-2.187 -3.453,0.742 m 58.044,-0.849 c -0.984,2.566 0.072,2.757 2.539,0.458 2.225,-2.073 2.227,-2.101 0.174,-2.101 -1.145,0 -2.366,0.739 -2.713,1.643 m 13.739,1.811 c -1.849,1.627 -2.305,2.486 -1.322,2.492 2.214,0.014 6.486,-3.528 5.208,-4.317 -0.585,-0.362 -2.333,0.46 -3.886,1.825 m -180.322,58.566 v 48.019 l 21.75,-0.269 21.75,-0.27 0.26,-47.75 0.259,-47.75 h -22.009 -22.01 v 48.02 m 70.217,-16.77 0.283,11.25 92.75,0.255 92.75,0.255 v -11.505 -11.505 h -93.033 -93.033 l 0.283,11.25 m -157.717,-0.048 c -9.424,3.108 -18.5,10.456 -18.5,14.978 0,1.001 -0.45,1.82 -1,1.82 -0.587,0 -1,3.468 -1,8.405 0,8.816 1.521,13.293 6.382,18.789 2.667,3.015 9.137,6.806 11.616,6.806 1.036,0 2.162,0.45 2.502,1 0.34,0.55 1.266,1 2.059,1 1.163,0 1.441,-2.015 1.441,-10.43 v -10.43 l 4.92,-5.32 c 3.818,-4.129 5.191,-5.055 6.134,-4.136 0.946,0.923 0.054,2.315 -4.037,6.3 -2.888,2.813 -5.004,5.363 -4.7,5.666 0.303,0.303 1.565,-0.394 2.805,-1.549 2.132,-1.986 4.878,-2.824 4.878,-1.49 0,0.336 -1.8,2.761 -4,5.389 -3.624,4.328 -4,5.305 -4,10.389 0,6.287 0.538,6.613 7.132,4.315 8.315,-2.897 16.868,-10.569 16.868,-15.131 0,-0.8 0.45,-1.733 1,-2.073 0.55,-0.34 1,-4.165 1,-8.5 0,-4.335 -0.45,-8.16 -1,-8.5 -0.55,-0.34 -1,-1.293 -1,-2.118 0,-4.247 -11.823,-14.382 -16.779,-14.382 -1.157,0 -2.381,-0.45 -2.721,-1 -0.761,-1.232 -5.971,-1.127 -10,0.202 m 112.346,8.263 c -4.973,3.649 -7.304,6.309 -4.631,5.283 2.266,-0.87 10.651,-7.124 10.723,-7.998 0.115,-1.397 -1.424,-0.711 -6.092,2.715 m 7.939,3.324 c -1.807,1.534 -4.243,3.447 -5.413,4.25 -5.594,3.84 -21.053,15.872 -22.258,17.324 -2.222,2.677 0.489,1.915 4.101,-1.152 1.807,-1.534 4.243,-3.447 5.413,-4.25 1.936,-1.329 19.679,-14.769 23.34,-17.679 1.358,-1.08 1.337,-1.222 -0.183,-1.25 -0.944,-0.018 -3.194,1.223 -5,2.757 m 251.215,0.154 c -0.825,0.454 -2.85,1.44 -4.5,2.191 -3.835,1.746 -6.933,4.795 -9.481,9.332 -1.556,2.77 -2.019,5.423 -2.019,11.564 0,4.647 0.417,7.97 1,7.97 0.55,0 1,0.791 1,1.757 0,3.796 11.751,12.243 17.03,12.243 2.858,0 2.97,-0.171 2.97,-4.554 0,-3.681 -0.574,-5.167 -2.995,-7.75 -3.204,-3.418 -3.605,-4.696 -1.981,-6.32 0.698,-0.698 0.38,-1.606 -1,-2.855 -1.113,-1.007 -2.024,-2.436 -2.024,-3.176 0,-2.52 3.189,-1.354 6.575,2.405 3.319,3.684 3.379,3.912 3.402,13 0.023,9.097 0.063,9.25 2.428,9.25 5.888,0 17.595,-9.887 17.595,-14.859 0,-1.113 0.45,-2.301 1,-2.641 0.55,-0.34 1,-2.841 1,-5.559 0,-2.718 -0.45,-4.941 -1,-4.941 -0.55,0 -1,-1.115 -1,-2.478 0,-3.077 -9.945,-13.522 -12.876,-13.522 -1.103,0 -2.284,-0.45 -2.624,-1 -0.736,-1.192 -10.358,-1.236 -12.5,-0.057 m -213.328,2.718 c -0.37,0.37 -0.672,18.139 -0.672,39.487 v 38.814 l 2.25,0.545 c 1.238,0.3 30.375,0.421 64.75,0.269 l 62.5,-0.276 0.263,-35.25 0.263,-35.25 h 17.987 17.987 v 35.5 35.5 h 5.511 5.512 l -0.262,-39.75 -0.261,-39.75 -87.578,-0.255 c -48.168,-0.141 -87.88,0.047 -88.25,0.416 m -60.172,3.808 c -2.032,1.665 -2.491,2.471 -1.424,2.495 0.866,0.02 2.632,-1.089 3.924,-2.464 3.015,-3.209 1.402,-3.229 -2.5,-0.031 m 19.917,3.989 c -2.458,2.17 -3.338,3.474 -2.363,3.5 0.854,0.023 3.08,-1.533 4.946,-3.458 4.376,-4.515 2.516,-4.545 -2.583,-0.042 m 57.583,18.042 v 18.5 h 8 8 v -18.5 -18.5 h -8 -8 v 18.5 m 27.443,-17.213 c -0.271,0.707 -0.369,8.92 -0.218,18.25 l 0.275,16.963 8.25,0.29 8.25,0.291 v -18.541 -18.54 h -8.031 c -5.625,0 -8.18,0.386 -8.526,1.287 m 24.557,17.213 v 18.581 l 8.25,-0.291 8.25,-0.29 v -18 -18 l -8.25,-0.29 -8.25,-0.291 v 18.581 m 26.667,-17.833 c -0.367,0.366 -0.667,8.691 -0.667,18.5 v 17.833 h 8.5 8.5 v -18.5 -18.5 h -7.833 c -4.309,0 -8.134,0.3 -8.5,0.667 m -76.667,5.333 v 4 h 4 4 v -4 -4 h -4 -4 v 4 m 27.667,-3.333 c -0.367,0.366 -0.667,2.166 -0.667,4 0,3.284 0.067,3.333 4.5,3.333 h 4.5 v -4 c 0,-3.971 -0.028,-4 -3.833,-4 -2.109,0 -4.134,0.3 -4.5,0.667 m 24.333,3.276 v 4.057 h 4.56 4.561 l -0.311,-3.75 c -0.301,-3.64 -0.435,-3.759 -4.56,-4.057 l -4.25,-0.308 v 4.058 m 26.413,-2.577 c -0.314,0.819 -0.423,2.534 -0.242,3.811 0.278,1.961 1.001,2.371 4.643,2.634 l 4.314,0.31 -0.314,-3.81 c -0.298,-3.618 -0.505,-3.827 -4.072,-4.122 -2.62,-0.217 -3.931,0.14 -4.329,1.177 m 33.587,34.134 v 34.5 h 8 8 v -34.5 -34.5 h -8 -8 v 34.5 m 18,0 v 34.5 h 3 3 v -34.5 -34.5 h -3 -3 v 34.5 m 9.237,-0.25 0.263,34.25 2.25,0.32 2.25,0.319 v -34.569 -34.57 h -2.513 -2.513 l 0.263,34.25 m -139.237,-13.75 v 11.5 h 4 4 v -11.5 -11.5 h -4 -4 v 11.5 m 27.217,-0.25 0.283,11.25 4.25,0.307 4.25,0.308 v -11.558 -11.557 h -4.533 -4.533 l 0.283,11.25 m 24.783,0.307 v 11.558 l 4.25,-0.308 4.25,-0.307 0.283,-11.25 0.283,-11.25 h -4.533 -4.533 v 11.557 m 26.43,-10.236 c -0.279,0.727 -0.377,5.789 -0.218,11.25 l 0.288,9.929 h 4 4 l 0.283,-11.25 0.283,-11.25 h -4.065 c -2.445,0 -4.266,0.526 -4.571,1.321 m -240.43,109.679 c 0,1.296 0.667,2 1.893,2 1.041,0 2.166,0.712 2.5,1.582 0.334,0.87 0.607,8.502 0.607,16.961 0,14.533 -0.12,15.491 -2.189,17.418 -1.203,1.121 -1.991,2.067 -1.75,2.101 0.242,0.034 4.933,0.22 10.425,0.415 11.681,0.412 15.495,-0.757 18.488,-5.667 3.094,-5.075 2.297,-10.305 -2.379,-15.602 -1.7,-1.926 -1.826,-2.609 -0.787,-4.272 0.68,-1.089 1.502,-3.92 1.827,-6.292 0.559,-4.076 0.381,-4.485 -3.25,-7.478 -3.786,-3.121 -3.994,-3.166 -14.613,-3.166 -10.105,0 -10.772,0.124 -10.772,2 m 66,-0.423 c 0,0.708 0.9,1.574 2,1.923 1.889,0.6 2,1.513 2,16.491 0,15.599 -0.042,15.905 -2.589,18.932 l -2.589,3.077 h 14.589 14.589 v -5.167 c 0,-5.281 -0.445,-5.579 -2.42,-1.617 -1.504,3.017 -5.299,4.203 -10.805,3.377 -4.067,-0.609 -4.607,-1.003 -5.159,-3.762 -0.802,-4.01 -0.775,-17.861 0.048,-24.715 0.487,-4.061 1.1,-5.503 2.491,-5.867 1.015,-0.265 1.845,-1.236 1.845,-2.157 0,-1.402 -1.145,-1.686 -7,-1.74 -5.078,-0.046 -7,0.29 -7,1.225 m 59.377,-0.378 c -0.318,0.514 0.251,1.54 1.264,2.281 1.587,1.16 1.917,3.289 2.387,15.386 0.537,13.824 0.593,14.098 3.615,17.837 4.117,5.094 11.163,7.809 16.243,6.26 6.157,-1.878 8.314,-3.319 10.756,-7.188 2.142,-3.393 2.36,-4.859 2.38,-16.005 0.02,-10.637 0.283,-12.603 1.978,-14.77 3.247,-4.151 2.608,-4.794 -4.512,-4.54 -6.316,0.224 -9.421,1.305 -6.613,2.302 0.756,0.268 2.219,1.332 3.25,2.363 2.841,2.841 2.708,20.604 -0.207,27.619 -2.304,5.544 -4.839,7.256 -10.743,7.256 -8.505,0 -11.175,-5.268 -11.175,-22.05 0,-11.582 0.05,-11.844 2.653,-13.891 1.459,-1.148 2.321,-2.418 1.917,-2.823 -1.09,-1.091 -12.522,-1.123 -13.193,-0.037 m 74.624,0.429 c -0.001,0.62 0.92,1.745 2.045,2.5 2.739,1.836 4.301,12.63 3.425,23.668 -0.572,7.205 -1.002,8.615 -3.266,10.715 -1.435,1.33 -2.405,2.603 -2.157,2.828 0.249,0.225 3.954,0.624 8.235,0.887 7.638,0.469 10.725,-0.523 7.407,-2.38 -3.27,-1.83 -4.514,-3.929 -5.174,-8.733 -0.94,-6.834 0.431,-9.113 5.483,-9.113 3.369,0 4.267,0.498 6.304,3.495 2.671,3.932 3.697,3.652 3.697,-1.007 0,-5.106 -2.531,-6.611 -9.831,-5.848 l -6.169,0.645 v -5.095 c 0,-2.803 0.522,-6.242 1.161,-7.643 1.073,-2.356 1.656,-2.547 7.784,-2.547 6.299,0 6.711,0.147 8.396,3 2.367,4.008 3.995,3.879 3.164,-0.25 -1.443,-7.166 -0.165,-6.653 -16.054,-6.442 -9.946,0.132 -14.45,0.544 -14.45,1.32 m 61.999,0.622 c 0,0.962 0.686,1.75 1.525,1.75 0.838,0 1.904,1.013 2.367,2.25 1.496,3.993 2.266,15.371 1.54,22.745 -0.582,5.902 -1.164,7.603 -3.272,9.557 -1.41,1.308 -2.36,2.562 -2.112,2.787 0.249,0.225 3.954,0.624 8.235,0.887 7.638,0.469 10.725,-0.523 7.407,-2.38 -3.27,-1.83 -4.514,-3.929 -5.174,-8.733 -0.927,-6.734 0.449,-9.113 5.269,-9.113 3.055,0 4.286,0.666 6.927,3.75 l 3.213,3.75 0.006,-4 c 0.009,-6.548 -1.543,-7.698 -9.32,-6.901 l -6.611,0.677 v -5.091 c 0,-2.8 0.522,-6.237 1.161,-7.638 1.073,-2.356 1.656,-2.547 7.784,-2.547 6.299,0 6.711,0.147 8.396,3 0.975,1.65 2.217,3 2.761,3 1.153,0 0.126,-6.882 -1.294,-8.676 -0.647,-0.818 -5.188,-1.123 -14.869,-1 -12.54,0.158 -13.938,0.352 -13.939,1.926 m 67.343,-0.704 c -6.814,2.986 -9.459,11.272 -5.093,15.955 1.237,1.327 5.58,4.12 9.65,6.206 8.255,4.231 11.269,7.482 10.478,11.302 -1.294,6.252 -16.104,6.87 -18.919,0.789 -1.349,-2.913 -2.904,-2.768 -3.261,0.303 -0.485,4.175 3.706,6.244 12.801,6.32 7.196,0.06 7.686,-0.086 11.262,-3.34 4.631,-4.214 5.149,-9.267 1.369,-13.346 -2.089,-2.255 -12.353,-7.735 -14.485,-7.735 -1.296,0 -4.859,-4.317 -5.613,-6.799 -2.309,-7.608 12.652,-11.239 16.872,-4.095 2.264,3.833 3.596,3.659 3.596,-0.47 0,-3.041 -0.412,-3.522 -4.283,-5 -5.105,-1.95 -10.059,-1.98 -14.374,-0.09 m -317.593,2.101 c -1.45,0.414 -1.75,1.687 -1.75,7.426 v 6.927 h 5.385 c 4.62,0 5.614,-0.35 7,-2.465 1.941,-2.962 2.121,-8.87 0.315,-10.369 -1.534,-1.273 -8.451,-2.233 -10.95,-1.519 m 1.25,18.235 c -2.336,0.656 -2.519,1.181 -2.796,8.002 -0.354,8.738 0.503,10.116 6.284,10.116 7.465,0 12.163,-6.528 9.582,-13.316 -1.506,-3.962 -7.813,-6.279 -13.07,-4.802 m -49,76.494 c 0,7.083 0.391,11.624 1,11.624 0.55,0 1,-2.25 1,-5 0,-4.667 0.167,-5 2.5,-5 1.965,0 3.089,1.067 5.25,4.986 1.662,3.012 3.443,4.991 4.5,5 2.014,0.016 2.355,-1.531 0.5,-2.269 -0.687,-0.274 -2.116,-2.137 -3.175,-4.14 l -1.926,-3.643 2.176,-1.524 c 2.494,-1.747 2.894,-6.045 0.825,-8.874 -0.945,-1.292 -3.047,-1.987 -7,-2.315 l -5.65,-0.469 v 11.624 m 44,0.124 v 11.5 h 6 c 3.333,0 6,-0.444 6,-1 0,-0.55 -2.25,-1 -5,-1 h -5 v -4 c 0,-3.99 0.01,-4 3.941,-4 2.168,0 4.219,-0.45 4.559,-1 0.378,-0.611 -1.156,-1 -3.941,-1 h -4.559 v -4 -4 h 5 c 3.778,0 5,-0.367 5,-1.5 0,-1.167 -1.333,-1.5 -6,-1.5 h -6 v 11.5 m 45.743,-7.75 c -0.858,2.063 -2.537,6.45 -3.732,9.75 -1.194,3.3 -2.589,6.788 -3.099,7.75 -0.685,1.29 -0.547,1.75 0.525,1.75 0.8,0 2.047,-1.237 2.772,-2.75 1.033,-2.156 2.071,-2.786 4.804,-2.916 5.33,-0.253 6.987,0.514 6.987,3.233 0,1.758 0.549,2.433 1.979,2.433 2.093,0 2.12,0.192 -1.053,-7.5 -0.454,-1.1 -1.536,-4.191 -2.404,-6.869 -1.903,-5.868 -3.313,-8.631 -4.405,-8.631 -0.447,0 -1.515,1.688 -2.374,3.75 m 39.896,-3.056 c -0.351,0.352 -0.639,5.514 -0.639,11.473 v 10.833 h 5.5 c 3.025,0 5.5,-0.45 5.5,-1 0,-0.55 -1.8,-1 -4,-1 h -4 v -9.941 c 0,-9.105 -0.672,-12.054 -2.361,-10.365 m 71.361,10.758 v 11.548 h 6.5 c 3.667,0 6.5,-0.436 6.5,-1 0,-0.55 -2.25,-1 -5,-1 h -5 v -4 -4 h 4 c 2.2,0 4,-0.45 4,-1 0,-0.55 -1.8,-1 -4,-1 h -4 v -4 -4 h 5.083 c 7.612,0 5.959,-2.418 -1.912,-2.798 l -6.171,-0.297 v 11.547 m 43.009,-8.962 c -2.008,2.138 -2.178,2.844 -1.199,4.992 0.63,1.384 2.915,3.271 5.109,4.222 2.184,0.946 4.524,2.755 5.201,4.019 1.054,1.97 0.954,2.51 -0.695,3.757 -2.651,2.006 -4.671,1.871 -7.195,-0.48 -2.588,-2.411 -3.23,-2.496 -3.23,-0.429 0,4.353 9.036,6.256 12.345,2.6 3.611,-3.989 1.623,-8.397 -5.079,-11.262 -3.539,-1.513 -4.534,-3.046 -3.585,-5.521 0.473,-1.232 1.524,-1.49 4.469,-1.095 4.298,0.577 5.6,-1.591 1.6,-2.663 -3.9,-1.045 -5.336,-0.7 -7.741,1.86 m 37.991,-1.034 c 0,1.049 0.962,1.544 3,1.544 h 3 v 10.083 c 0,7.089 0.338,9.971 1.137,9.705 0.763,-0.255 1.073,-3.549 0.943,-10.016 l -0.194,-9.637 3.307,-0.317 c 6.037,-0.58 3.42,-2.313 -3.943,-2.612 -5.996,-0.243 -7.25,-0.027 -7.25,1.25 m 46.955,1.294 c -0.548,1.513 -1.407,3.65 -1.91,4.75 -2.264,4.956 -5.165,14.714 -4.555,15.323 0.786,0.786 3.51,-2.64 3.51,-4.414 0,-0.787 1.685,-1.187 4.825,-1.146 4.272,0.055 5.021,0.403 6.531,3.035 3.109,5.417 2.915,1.944 -0.448,-7.994 -4.468,-13.206 -5.975,-15.016 -7.953,-9.554 m 36.739,-2.111 c -1.21,1.211 0.43,2.361 3.365,2.361 h 2.941 v 10 c 0,6 0.4,10 1,10 0.6,0 1,-4 1,-10 v -10 h 3 c 2,0 3,-0.5 3,-1.5 0,-1.187 -1.426,-1.5 -6.833,-1.5 -3.759,0 -7.121,0.288 -7.473,0.639 m 42.306,10.861 v 11.5 h 6 c 3.333,0 6,-0.444 6,-1 0,-0.55 -2.25,-1 -5,-1 h -5 v -4 -4 h 5 c 6.362,0 6.566,-1.79 0.25,-2.195 -4.704,-0.302 -4.753,-0.341 -5.06,-4.055 l -0.311,-3.75 h 5.061 c 3.831,0 5.06,-0.364 5.06,-1.5 0,-1.167 -1.333,-1.5 -6,-1.5 h -6 v 11.5 m -406,-4.5 c 0,3.58 0.258,4 2.453,4 3.592,0 7.547,-2.075 7.547,-3.961 0,-2.648 -2.136,-4.039 -6.2,-4.039 -3.767,0 -3.8,0.035 -3.8,4 m 327.243,0.984 c -1.95,6.249 -1.701,7.016 2.276,7.016 3.329,0 3.484,-0.148 2.871,-2.75 -0.357,-1.513 -1.04,-3.178 -1.519,-3.7 -0.479,-0.522 -0.871,-1.76 -0.871,-2.75 0,-3.118 -1.464,-1.959 -2.757,2.184 m -237.985,-1.723 c -0.533,0.681 -1.208,2.139 -1.5,3.239 -0.292,1.1 -0.855,2.788 -1.252,3.75 -0.617,1.5 -0.132,1.75 3.387,1.75 2.909,0 4.107,-0.42 4.107,-1.441 0,-0.793 -0.45,-1.719 -1,-2.059 -0.55,-0.34 -1,-1.69 -1,-3 0,-2.835 -1.389,-3.969 -2.742,-2.239"
     stroke="none"
     fill="#00000b"
     fill-rule="evenodd"
     id="path2" />
  <path
     d="m 146.11703,128.05448 0.26,48.75 h 72 72 l 0.03,-22.5 0.03,-22.5 -0.299,22.25 -0.299,22.25 h -71.5 -71.5 l 0.269,-48.5 c 0.148,-26.675 -0.073,-48.500001 -0.491,-48.500001 -0.417,0 -0.642,21.938001 -0.5,48.750001 m 31.177,-16.25 c 0.001,10.45 0.149,14.589 0.329,9.198 0.18,-5.391 0.179,-13.941 -0.002,-19 -0.181,-5.059001 -0.328,-0.648 -0.327,9.802 m 2.998,2.5 c 0,10.175 0.149,14.337 0.33,9.25 0.182,-5.088 0.182,-13.413 0,-18.5 -0.181,-5.088001 -0.33,-0.925 -0.33,9.25 m 70.837,12.5 c 0.011,2.2 0.216,2.982 0.455,1.738 0.239,-1.244 0.23,-3.044 -0.02,-4 -0.25,-0.956 -0.446,0.062 -0.435,2.262 m 2.98,0.5 c 0,1.925 0.206,2.712 0.457,1.75 0.252,-0.962 0.252,-2.538 0,-3.5 -0.251,-0.962 -0.457,-0.175 -0.457,1.75 m 60.719,5.276 c 0.487,4.12 0.508,4.141 0.847,0.847 0.191,-1.858 -0.033,-3.758 -0.499,-4.224 -0.466,-0.466 -0.622,1.054 -0.348,3.377 m -18.72,23.968 -0.231,24.744 -77.75,0.262 -77.75,0.262 77.781,0.244 c 62.127,0.195 77.88,-0.012 78.269,-1.026 0.268,-0.698 0.358,-12.061 0.2,-25.25 l -0.288,-23.98 -0.231,24.744 m -118.814,-1.744 c 0.001,10.45 0.149,14.589 0.329,9.198 0.18,-5.391 0.179,-13.941 -0.002,-19 -0.181,-5.059 -0.328,-0.648 -0.327,9.802 m 3,0 c 0.001,10.45 0.149,14.589 0.329,9.198 0.18,-5.391 0.179,-13.941 -0.002,-19 -0.181,-5.059 -0.328,-0.648 -0.327,9.802 m 70.998,-0.5 c 0,10.175 0.149,14.337 0.33,9.25 0.182,-5.088 0.182,-13.413 0,-18.5 -0.181,-5.088 -0.33,-0.925 -0.33,9.25 m 3,0 c 0,10.175 0.149,14.337 0.33,9.25 0.182,-5.088 0.182,-13.413 0,-18.5 -0.181,-5.088 -0.33,-0.925 -0.33,9.25 m -149.954,57.5 c 0,25.3 0.13,35.507 0.288,22.681 0.159,-12.825 0.158,-33.525 0,-46 -0.159,-12.474 -0.288,-1.981 -0.288,23.319 m 205.76,-29.769 8.721,0.343 0.323,12.713 0.322,12.713 -0.043,-13 -0.044,-13 -9,-0.056 -9,-0.056 8.721,0.343 m -178.861,13.269 c 0,5.225 0.169,7.363 0.375,4.75 0.206,-2.613 0.206,-6.887 0,-9.5 -0.206,-2.613 -0.375,-0.475 -0.375,4.75 m -157.86,0.202 c -9.424,3.108 -18.5,10.456 -18.5,14.978 0,1.001 -0.45,1.82 -1,1.82 -0.587,0 -1,3.468 -1,8.405 0,8.816 1.521,13.293 6.382,18.789 2.667,3.015 9.137,6.806 11.616,6.806 1.036,0 2.162,0.45 2.502,1 0.34,0.55 1.266,1 2.059,1 1.163,0 1.441,-2.015 1.441,-10.43 v -10.43 l 4.92,-5.32 c 3.818,-4.129 5.191,-5.055 6.134,-4.136 0.946,0.923 0.054,2.315 -4.037,6.3 -2.888,2.813 -5.004,5.363 -4.7,5.666 0.303,0.303 1.565,-0.394 2.805,-1.549 2.132,-1.986 4.878,-2.824 4.878,-1.49 0,0.336 -1.8,2.761 -4,5.389 -3.624,4.328 -4,5.305 -4,10.389 0,6.287 0.538,6.613 7.132,4.315 8.315,-2.897 16.868,-10.569 16.868,-15.131 0,-0.8 0.45,-1.733 1,-2.073 0.55,-0.34 1,-4.165 1,-8.5 0,-4.335 -0.45,-8.16 -1,-8.5 -0.55,-0.34 -1,-1.293 -1,-2.118 0,-4.247 -11.823,-14.382 -16.779,-14.382 -1.157,0 -2.381,-0.45 -2.721,-1 -0.761,-1.232 -5.971,-1.127 -10,0.202 m 204.174,11.548 c 25.396,0.148 67.246,0.148 93,0 25.754,-0.149 4.976,-0.27 -46.174,-0.27 -51.15,0 -72.222,0.121 -46.826,0.27 m 167.326,0.193 c -0.825,0.454 -2.85,1.44 -4.5,2.191 -3.835,1.746 -6.933,4.795 -9.481,9.332 -1.556,2.77 -2.019,5.423 -2.019,11.564 0,4.647 0.417,7.97 1,7.97 0.55,0 1,0.791 1,1.757 0,3.796 11.751,12.243 17.03,12.243 2.858,0 2.97,-0.171 2.97,-4.554 0,-3.681 -0.574,-5.167 -2.995,-7.75 -3.204,-3.418 -3.605,-4.696 -1.981,-6.32 0.698,-0.698 0.38,-1.606 -1,-2.855 -1.113,-1.007 -2.024,-2.436 -2.024,-3.176 0,-2.52 3.189,-1.354 6.575,2.405 3.319,3.684 3.379,3.912 3.402,13 0.023,9.097 0.063,9.25 2.428,9.25 5.888,0 17.595,-9.887 17.595,-14.859 0,-1.113 0.45,-2.301 1,-2.641 0.55,-0.34 1,-2.841 1,-5.559 0,-2.718 -0.45,-4.941 -1,-4.941 -0.55,0 -1,-1.115 -1,-2.478 0,-3.077 -9.945,-13.522 -12.876,-13.522 -1.103,0 -2.284,-0.45 -2.624,-1 -0.736,-1.192 -10.358,-1.236 -12.5,-0.057 m -125.762,2.804 87.739,0.264 0.279,38.744 0.28,38.745 -0.018,-39 -0.018,-39 -88,-0.008 -88,-0.009 87.738,0.264 m 91.218,0.506 c -0.264,0.689 -0.362,18.576 -0.218,39.75 l 0.262,38.497 20.251,0.032 20.25,0.032 -20,-0.303 -20.001,-0.302 v -38.922 -38.922 l 4.25,-0.383 4.25,-0.383 -4.281,-0.174 c -2.649,-0.108 -4.465,0.303 -4.763,1.078 m -179.003,38.747 c 0,20.625 0.133,29.063 0.296,18.75 0.162,-10.312 0.162,-27.187 0,-37.5 -0.163,-10.312 -0.296,-1.875 -0.296,18.75 m 21.297,-32.268 c 2.337,0.211 6.163,0.211 8.5,0 2.337,-0.21 0.425,-0.383 -4.25,-0.383 -4.675,0 -6.587,0.173 -4.25,0.383 m 23.45,0.468 c -0.857,0.857 -1.139,6.071 -0.986,18.25 l 0.214,17.05 0.536,-17.5 0.536,-17.5 8,-0.567 8,-0.566 -7.55,-0.184 c -4.769,-0.115 -7.992,0.259 -8.75,1.017 m 32.8,-0.264 8.5,0.564 0.536,17.5 0.536,17.5 0.214,-17.05 c 0.153,-12.179 -0.129,-17.393 -0.986,-18.25 -0.769,-0.769 -4.09,-1.133 -9.25,-1.014 l -8.05,0.187 8.5,0.563 m 18.652,-0.186 c -0.256,0.413 2.08,0.623 5.191,0.467 9.767,-0.487 10.945,-0.912 2.966,-1.067 -4.23,-0.083 -7.901,0.187 -8.157,0.6 m -79.241,18.25 c 0,9.625 0.15,13.563 0.334,8.75 0.183,-4.812 0.183,-12.687 0,-17.5 -0.184,-4.812 -0.334,-0.875 -0.334,8.75 m 17,0 c 0,9.625 0.15,13.563 0.334,8.75 0.183,-4.812 0.183,-12.687 0,-17.5 -0.184,-4.812 -0.334,-0.875 -0.334,8.75 m 79,0 c 0,9.625 0.15,13.563 0.334,8.75 0.183,-4.812 0.183,-12.687 0,-17.5 -0.184,-4.812 -0.334,-0.875 -0.334,8.75 m 16.039,17 c 0,18.975 0.134,26.737 0.298,17.25 0.165,-9.487 0.165,-25.013 0,-34.5 -0.164,-9.488 -0.298,-1.725 -0.298,17.25 m -82.056,-31.584 c -0.299,0.778 -0.352,2.691 -0.118,4.25 0.363,2.422 0.446,2.298 0.574,-0.856 0.142,-3.494 0.348,-3.71 3.9,-4.082 l 3.75,-0.392 -3.781,-0.168 c -2.462,-0.109 -3.971,0.326 -4.325,1.248 m 27.856,-0.727 c 0.962,0.252 2.538,0.252 3.5,0 0.962,-0.251 0.175,-0.457 -1.75,-0.457 -1.925,0 -2.712,0.206 -1.75,0.457 m 25.512,0.018 c 1.244,0.239 3.044,0.23 4,-0.02 0.956,-0.25 -0.062,-0.446 -2.262,-0.435 -2.2,0.011 -2.982,0.216 -1.738,0.455 m 58.685,34.293 c 0,17.875 0.135,25.188 0.301,16.25 0.166,-8.937 0.166,-23.562 0,-32.5 -0.166,-8.937 -0.301,-1.625 -0.301,16.25 m -59.197,-27.311 c 0.962,0.252 2.538,0.252 3.5,0 0.962,-0.251 0.175,-0.457 -1.75,-0.457 -1.925,0 -2.712,0.206 -1.75,0.457 m -52.872,13.311 c 0,6.325 0.163,8.913 0.361,5.75 0.198,-3.163 0.198,-8.337 0,-11.5 -0.198,-3.163 -0.361,-0.575 -0.361,5.75 m 2.872,-10.311 c 0.962,0.252 2.538,0.252 3.5,0 0.962,-0.251 0.175,-0.457 -1.75,-0.457 -1.925,0 -2.712,0.206 -1.75,0.457 m 50.5,0.017 c 1.237,0.238 3.263,0.238 4.5,0 1.237,-0.239 0.225,-0.434 -2.25,-0.434 -2.475,0 -3.487,0.195 -2.25,0.434 m -20.401,10.294 c 0,4.675 0.173,6.587 0.383,4.25 0.211,-2.337 0.211,-6.163 0,-8.5 -0.21,-2.337 -0.383,-0.425 -0.383,4.25 m 18.094,1.748 0.057,9.752 3,0.145 c 2.779,0.134 2.8,0.111 0.285,-0.313 -2.698,-0.455 -2.716,-0.513 -3.057,-9.897 l -0.343,-9.44 0.058,9.753 m 7.906,-1.748 c 0,4.675 0.173,6.587 0.383,4.25 0.211,-2.337 0.211,-6.163 0,-8.5 -0.21,-2.337 -0.383,-0.425 -0.383,4.25 m -153.849,19 -21,0.561 20.691,0.22 c 12.957,0.137 20.922,-0.155 21.309,-0.781 0.34,-0.55 0.479,-0.901 0.309,-0.781 -0.17,0.121 -9.759,0.472 -21.309,0.781 m -111.25,29.689 c 0.962,0.252 2.538,0.252 3.5,0 0.962,-0.251 0.175,-0.457 -1.75,-0.457 -1.925,0 -2.712,0.206 -1.75,0.457 m 16,0.057 c 5.363,0.179 14.137,0.179 19.5,0 5.363,-0.18 0.975,-0.327 -9.75,-0.327 -10.725,0 -15.113,0.147 -9.75,0.327 m 176.572,0.004 c 17.778,0.153 46.578,0.153 64,-0.001 17.423,-0.153 2.878,-0.278 -32.322,-0.278 -35.2,0 -49.455,0.126 -31.678,0.279 m 101.928,-0.018 c 2.337,0.211 6.163,0.211 8.5,0 2.337,-0.21 0.425,-0.383 -4.25,-0.383 -4.675,0 -6.587,0.173 -4.25,0.383 m 15.5,-0.043 c 0.962,0.252 2.538,0.252 3.5,0 0.962,-0.251 0.175,-0.457 -1.75,-0.457 -1.925,0 -2.712,0.206 -1.75,0.457 m 17.518,0.036 c 1.797,0.222 4.497,0.218 6,-0.01 1.503,-0.229 0.032,-0.411 -3.268,-0.405 -3.3,0.005 -4.529,0.192 -2.732,0.415 m -233.438,2.025 c 53.806,0.143 141.556,0.143 195,0 53.443,-0.143 9.42,-0.26 -97.83,-0.26 -107.25,0 -150.977,0.117 -97.17,0.26 m 51.04,64.25 c 0,5.775 0.165,8.138 0.367,5.25 0.202,-2.888 0.202,-7.612 0,-10.5 -0.202,-2.888 -0.367,-0.525 -0.367,5.25 m 34,0 c 0,5.775 0.165,8.138 0.367,5.25 0.202,-2.888 0.202,-7.612 0,-10.5 -0.202,-2.888 -0.367,-0.525 -0.367,5.25 m 47.882,-5.5 c 0.011,2.2 0.216,2.982 0.455,1.738 0.239,-1.244 0.23,-3.044 -0.02,-4 -0.25,-0.956 -0.446,0.062 -0.435,2.262 m 62.02,0.5 c 0,2.475 0.195,3.487 0.434,2.25 0.238,-1.237 0.238,-3.263 0,-4.5 -0.239,-1.237 -0.434,-0.225 -0.434,2.25 m -196.894,11 c 0,6.325 0.163,8.913 0.361,5.75 0.198,-3.163 0.198,-8.337 0,-11.5 -0.198,-3.163 -0.361,-0.575 -0.361,5.75 m 129.942,-1 c 0,3.575 0.182,5.038 0.403,3.25 0.222,-1.788 0.222,-4.712 0,-6.5 -0.221,-1.788 -0.403,-0.325 -0.403,3.25 m 62,0 c 0,3.575 0.182,5.038 0.403,3.25 0.222,-1.788 0.222,-4.712 0,-6.5 -0.221,-1.788 -0.403,-0.325 -0.403,3.25 m -57.088,6 c 0,1.925 0.206,2.712 0.457,1.75 0.252,-0.962 0.252,-2.538 0,-3.5 -0.251,-0.962 -0.457,-0.175 -0.457,1.75 m 62,0 c 0,1.925 0.206,2.712 0.457,1.75 0.252,-0.962 0.252,-2.538 0,-3.5 -0.251,-0.962 -0.457,-0.175 -0.457,1.75 m -264.854,71 c 0,6.325 0.163,8.913 0.361,5.75 0.198,-3.163 0.198,-8.337 0,-11.5 -0.198,-3.163 -0.361,-0.575 -0.361,5.75 m 156.982,-2 c 0,5.225 0.169,7.362 0.375,4.75 0.206,-2.612 0.206,-6.888 0,-9.5 -0.206,-2.612 -0.375,-0.475 -0.375,4.75 m 89.989,3 c 0,4.675 0.173,6.587 0.383,4.25 0.211,-2.337 0.211,-6.163 0,-8.5 -0.21,-2.337 -0.383,-0.425 -0.383,4.25 m -287.099,-2.311 c 0.962,0.252 2.538,0.252 3.5,0 0.962,-0.251 0.175,-0.457 -1.75,-0.457 -1.925,0 -2.712,0.206 -1.75,0.457 m 46,0 c 0.962,0.252 2.538,0.252 3.5,0 0.962,-0.251 0.175,-0.457 -1.75,-0.457 -1.925,0 -2.712,0.206 -1.75,0.457 m 157.512,0.018 c 1.244,0.239 3.044,0.23 4,-0.02 0.956,-0.25 -0.062,-0.446 -2.262,-0.435 -2.2,0.011 -2.982,0.216 -1.738,0.455 m 205.988,-0.001 c 1.237,0.238 3.263,0.238 4.5,0 1.237,-0.239 0.225,-0.434 -2.25,-0.434 -2.475,0 -3.487,0.195 -2.25,0.434"
     stroke="none"
     fill="#2e3c00"
     fill-rule="evenodd"
     id="path3" />
</svg>
